<svg width="130" height="130" viewBox="0 0 130 130" fill="none" xmlns="http://www.w3.org/2000/svg">
<g clip-path="url(#clip0_15_127)">
<rect width="130" height="130" fill="white"/>
<path d="M-20 77.6672V88.8642C-20 94.387 -15.5228 98.8642 -10 98.8642H139.868C145.391 98.8642 149.868 94.387 149.868 88.8642V77.6672H64.9341H-20Z" fill="white"/>
<path d="M-20 39.5126L64.9341 77.6672L149.868 39.5126H-20Z" fill="white"/>
<path d="M64.9341 77.6672L-20 39.5126V77.6672H64.9341Z" fill="white"/>
<path d="M149.868 39.5126L64.9341 77.6672H149.868V39.5126Z" fill="white"/>
<path d="M-20 39.5126L64.9341 77.6672M-20 39.5126V77.6672M-20 39.5126H149.868M64.9341 77.6672L149.868 39.5126M64.9341 77.6672H149.868M64.9341 77.6672H-20M149.868 39.5126V77.6672M149.868 77.6672V88.8642C149.868 94.387 145.391 98.8642 139.868 98.8642H-10C-15.5228 98.8642 -20 94.387 -20 88.8642V77.6672" stroke="white" stroke-width="5"/>
<path d="M36.2816 45.9448V52.0253C36.2816 57.5481 40.7588 62.0253 46.2816 62.0253H83.5865C89.1094 62.0253 93.5865 57.5481 93.5865 52.0253V45.9448H64.9341H36.2816Z" fill="#E3E3E3"/>
<path d="M36.2816 17L64.9341 45.9448L93.5865 17H36.2816Z" fill="#00C2FF"/>
<path d="M64.9341 45.9448L36.2816 17V45.9448H64.9341Z" fill="white"/>
<path d="M93.5865 17L64.9341 45.9448H93.5865V17Z" fill="white"/>
<path d="M36.2816 17L64.9341 45.9448M36.2816 17V45.9448M36.2816 17H93.5865M64.9341 45.9448L93.5865 17M64.9341 45.9448H93.5865M64.9341 45.9448H36.2816M93.5865 17V45.9448M93.5865 45.9448V52.0253C93.5865 57.5481 89.1094 62.0253 83.5865 62.0253H46.2816C40.7588 62.0253 36.2816 57.5481 36.2816 52.0253V45.9448" stroke="black" stroke-width="5"/>
<path d="M8.12837 77.8182H12.9224L21.2576 98.1705H21.5645L29.8997 77.8182H34.6937V104H30.9352V85.054H30.6923L22.9707 103.962H19.8514L12.1298 85.0412H11.8869V104H8.12837V77.8182ZM45.8446 104.435C44.6003 104.435 43.4753 104.205 42.4696 103.744C41.464 103.276 40.6671 102.598 40.079 101.712C39.4995 100.825 39.2097 99.7386 39.2097 98.4517C39.2097 97.3437 39.4228 96.4318 39.8489 95.7159C40.275 95 40.8503 94.4332 41.5748 94.0156C42.2992 93.598 43.1088 93.2827 44.0037 93.0696C44.8986 92.8565 45.8105 92.6946 46.7395 92.5838C47.9157 92.4474 48.8702 92.3366 49.6032 92.2514C50.3361 92.1577 50.8688 92.0085 51.2012 91.804C51.5336 91.5994 51.6998 91.267 51.6998 90.8068V90.7173C51.6998 89.6009 51.3844 88.7358 50.7537 88.1222C50.1316 87.5085 49.2026 87.2017 47.9668 87.2017C46.6799 87.2017 45.6657 87.4872 44.9242 88.0582C44.1912 88.6207 43.6841 89.2472 43.4029 89.9375L39.8105 89.1193C40.2367 87.9261 40.8588 86.9631 41.677 86.2301C42.5037 85.4886 43.454 84.9517 44.5279 84.6193C45.6017 84.2784 46.731 84.108 47.9157 84.108C48.6998 84.108 49.5307 84.2017 50.4086 84.3892C51.2949 84.5682 52.1216 84.9006 52.8887 85.3864C53.6642 85.8722 54.2992 86.5668 54.7935 87.4702C55.2878 88.3651 55.535 89.5284 55.535 90.9602V104H51.802V101.315H51.6486C51.4015 101.81 51.0307 102.295 50.5364 102.773C50.0421 103.25 49.4071 103.646 48.6316 103.962C47.856 104.277 46.927 104.435 45.8446 104.435ZM46.6756 101.366C47.7324 101.366 48.6358 101.158 49.3858 100.74C50.1444 100.322 50.7196 99.777 51.1117 99.1037C51.5123 98.4219 51.7125 97.6932 51.7125 96.9176V94.3864C51.5762 94.5227 51.312 94.6506 50.9199 94.7699C50.5364 94.8807 50.0975 94.9787 49.6032 95.0639C49.1088 95.1406 48.6273 95.2131 48.1586 95.2812C47.6898 95.3409 47.2978 95.392 46.9824 95.4347C46.2409 95.5284 45.5634 95.6861 44.9498 95.9077C44.3446 96.1293 43.8588 96.4489 43.4924 96.8665C43.1344 97.2756 42.9554 97.821 42.9554 98.5028C42.9554 99.4489 43.3049 100.165 44.0037 100.651C44.7026 101.128 45.5932 101.366 46.6756 101.366ZM60.6262 104V84.3636H64.4487V104H60.6262ZM62.5566 81.3338C61.8919 81.3338 61.3208 81.1122 60.8436 80.669C60.3748 80.2173 60.1404 79.6804 60.1404 79.0582C60.1404 78.4276 60.3748 77.8906 60.8436 77.4474C61.3208 76.9957 61.8919 76.7699 62.5566 76.7699C63.2214 76.7699 63.7882 76.9957 64.2569 77.4474C64.7342 77.8906 64.9728 78.4276 64.9728 79.0582C64.9728 79.6804 64.7342 80.2173 64.2569 80.669C63.7882 81.1122 63.2214 81.3338 62.5566 81.3338ZM73.4135 77.8182V104H69.5911V77.8182H73.4135ZM78.5559 104V84.3636H82.3784V104H78.5559ZM80.4863 81.3338C79.8216 81.3338 79.2505 81.1122 78.7733 80.669C78.3045 80.2173 78.0701 79.6804 78.0701 79.0582C78.0701 78.4276 78.3045 77.8906 78.7733 77.4474C79.2505 76.9957 79.8216 76.7699 80.4863 76.7699C81.1511 76.7699 81.7179 76.9957 82.1866 77.4474C82.6639 77.8906 82.9025 78.4276 82.9025 79.0582C82.9025 79.6804 82.6639 80.2173 82.1866 80.669C81.7179 81.1122 81.1511 81.3338 80.4863 81.3338ZM93.2353 104.435C91.9909 104.435 90.8659 104.205 89.8603 103.744C88.8546 103.276 88.0577 102.598 87.4696 101.712C86.8901 100.825 86.6003 99.7386 86.6003 98.4517C86.6003 97.3437 86.8134 96.4318 87.2395 95.7159C87.6657 95 88.2409 94.4332 88.9654 94.0156C89.6898 93.598 90.4995 93.2827 91.3944 93.0696C92.2892 92.8565 93.2012 92.6946 94.1301 92.5838C95.3063 92.4474 96.2608 92.3366 96.9938 92.2514C97.7267 92.1577 98.2594 92.0085 98.5918 91.804C98.9242 91.5994 99.0904 91.267 99.0904 90.8068V90.7173C99.0904 89.6009 98.775 88.7358 98.1444 88.1222C97.5222 87.5085 96.5932 87.2017 95.3574 87.2017C94.0705 87.2017 93.0563 87.4872 92.3148 88.0582C91.5819 88.6207 91.0748 89.2472 90.7935 89.9375L87.2012 89.1193C87.6273 87.9261 88.2495 86.9631 89.0676 86.2301C89.8944 85.4886 90.8446 84.9517 91.9185 84.6193C92.9924 84.2784 94.1216 84.108 95.3063 84.108C96.0904 84.108 96.9213 84.2017 97.7992 84.3892C98.6855 84.5682 99.5123 84.9006 100.279 85.3864C101.055 85.8722 101.69 86.5668 102.184 87.4702C102.678 88.3651 102.926 89.5284 102.926 90.9602V104H99.1926V101.315H99.0392C98.7921 101.81 98.4213 102.295 97.927 102.773C97.4327 103.25 96.7978 103.646 96.0222 103.962C95.2466 104.277 94.3176 104.435 93.2353 104.435ZM94.0662 101.366C95.123 101.366 96.0265 101.158 96.7765 100.74C97.535 100.322 98.1103 99.777 98.5023 99.1037C98.9029 98.4219 99.1032 97.6932 99.1032 96.9176V94.3864C98.9668 94.5227 98.7026 94.6506 98.3105 94.7699C97.927 94.8807 97.4881 94.9787 96.9938 95.0639C96.4995 95.1406 96.0179 95.2131 95.5492 95.2812C95.0804 95.3409 94.6884 95.392 94.373 95.4347C93.6316 95.5284 92.954 95.6861 92.3404 95.9077C91.7353 96.1293 91.2495 96.4489 90.883 96.8665C90.525 97.2756 90.3461 97.821 90.3461 98.5028C90.3461 99.4489 90.6955 100.165 91.3944 100.651C92.0932 101.128 92.9838 101.366 94.0662 101.366ZM122.731 89.1577L119.267 89.7713C119.122 89.3281 118.892 88.9062 118.577 88.5057C118.27 88.1051 117.852 87.777 117.324 87.5213C116.795 87.2656 116.135 87.1378 115.342 87.1378C114.26 87.1378 113.356 87.3807 112.632 87.8665C111.907 88.3437 111.545 88.9616 111.545 89.7202C111.545 90.3764 111.788 90.9048 112.274 91.3054C112.76 91.706 113.544 92.0341 114.626 92.2898L117.746 93.0057C119.552 93.4233 120.899 94.0668 121.785 94.9361C122.672 95.8054 123.115 96.9347 123.115 98.3239C123.115 99.5 122.774 100.548 122.092 101.469C121.419 102.381 120.477 103.097 119.267 103.616C118.065 104.136 116.672 104.396 115.086 104.396C112.888 104.396 111.094 103.928 109.704 102.99C108.315 102.044 107.463 100.702 107.148 98.9631L110.842 98.4006C111.072 99.3636 111.545 100.092 112.261 100.587C112.977 101.072 113.91 101.315 115.061 101.315C116.314 101.315 117.315 101.055 118.065 100.536C118.815 100.007 119.19 99.3636 119.19 98.6051C119.19 97.9915 118.96 97.4759 118.5 97.0582C118.048 96.6406 117.354 96.3253 116.416 96.1122L113.092 95.3835C111.26 94.9659 109.905 94.3011 109.027 93.3892C108.157 92.4773 107.723 91.3224 107.723 89.9247C107.723 88.7656 108.047 87.7514 108.694 86.8821C109.342 86.0128 110.237 85.3352 111.379 84.8494C112.521 84.3551 113.829 84.108 115.304 84.108C117.426 84.108 119.096 84.5682 120.315 85.4886C121.534 86.4006 122.339 87.6236 122.731 89.1577Z" fill="black"/>
</g>
<defs>
<clipPath id="clip0_15_127">
<rect width="130" height="130" fill="white"/>
</clipPath>
</defs>
</svg>
