<svg width="100" height="100" viewBox="0 0 100 100" fill="none" xmlns="http://www.w3.org/2000/svg">
<path d="M14 58.6429V69C14 74.5228 18.4772 79 24 79H77C82.5228 79 87 74.5228 87 69V58.6429H50.5H14Z" fill="white"/>
<path d="M14 22L50.5 58.6429L87 22H14Z" fill="white"/>
<path d="M50.5 58.6429L14 22V58.6429H50.5Z" fill="white"/>
<path d="M87 22L50.5 58.6429H87V22Z" fill="white"/>
<path d="M14 22L50.5 58.6429M14 22V58.6429M14 22H87M50.5 58.6429L87 22M50.5 58.6429H87M50.5 58.6429H14M87 22V58.6429M87 58.6429V69C87 74.5228 82.5228 79 77 79H24C18.4772 79 14 74.5228 14 69V58.6429" stroke="white" stroke-width="5"/>
<path d="M23 56V61C23 66.5228 27.4772 71 33 71H67C72.5228 71 77 66.5228 77 61V56H50H23Z" fill="#E3E3E3"/>
<path d="M23 29L50 56L77 29H23Z" fill="#00C2FF"/>
<path d="M50 56L23 29V56H50Z" fill="white"/>
<path d="M77 29L50 56H77V29Z" fill="white"/>
<path d="M23 29L50 56M23 29V56M23 29H77M50 56L77 29M50 56H77M50 56H23M77 29V56M77 56V61C77 66.5228 72.5228 71 67 71H33C27.4772 71 23 66.5228 23 61V56" stroke="black" stroke-width="5"/>
</svg>
