<svg width="1500" height="500" viewBox="0 0 1500 500" fill="none" xmlns="http://www.w3.org/2000/svg">
<rect width="1500" height="500" fill="white"/>
<path d="M693 231V236C693 241.523 697.477 246 703 246H737C742.523 246 747 241.523 747 236V231H720H693Z" fill="#E3E3E3"/>
<path d="M693 204L720 231L747 204H693Z" fill="#00C2FF"/>
<path d="M720 231L693 204V231H720Z" fill="white"/>
<path d="M747 204L720 231H747V204Z" fill="white"/>
<path d="M693 204L720 231M693 204V231M693 204H747M720 231L747 204M720 231H747M720 231H693M747 204V231M747 231V236C747 241.523 742.523 246 737 246H703C697.477 246 693 241.523 693 236V231" stroke="black" stroke-width="5"/>
<path d="M761.54 237.46C760.295 237.46 759.166 237.226 758.152 236.757C757.138 236.28 756.332 235.594 755.736 234.699C755.139 233.795 754.841 232.705 754.841 231.426C754.841 230.301 755.063 229.389 755.506 228.69C755.949 227.983 756.541 227.429 757.283 227.028C758.024 226.628 758.842 226.33 759.737 226.134C760.641 225.929 761.548 225.767 762.46 225.648C763.653 225.494 764.621 225.379 765.362 225.303C766.112 225.217 766.658 225.077 766.999 224.881C767.348 224.685 767.523 224.344 767.523 223.858V223.756C767.523 222.494 767.178 221.514 766.487 220.815C765.805 220.116 764.77 219.767 763.381 219.767C761.94 219.767 760.811 220.082 759.993 220.713C759.175 221.344 758.599 222.017 758.267 222.733L755.403 221.71C755.915 220.517 756.597 219.588 757.449 218.923C758.31 218.25 759.247 217.781 760.261 217.517C761.284 217.244 762.29 217.108 763.278 217.108C763.909 217.108 764.634 217.185 765.452 217.338C766.278 217.483 767.075 217.786 767.842 218.246C768.618 218.706 769.261 219.401 769.773 220.33C770.284 221.259 770.54 222.503 770.54 224.062V237H767.523V234.341H767.369C767.165 234.767 766.824 235.223 766.347 235.709C765.869 236.195 765.234 236.608 764.442 236.949C763.649 237.29 762.682 237.46 761.54 237.46ZM762 234.75C763.193 234.75 764.199 234.516 765.017 234.047C765.844 233.578 766.466 232.973 766.884 232.232C767.31 231.49 767.523 230.71 767.523 229.892V227.131C767.395 227.284 767.114 227.425 766.679 227.553C766.253 227.672 765.759 227.778 765.196 227.872C764.642 227.957 764.101 228.034 763.572 228.102C763.053 228.162 762.631 228.213 762.307 228.256C761.523 228.358 760.79 228.524 760.108 228.754C759.435 228.976 758.889 229.312 758.472 229.764C758.063 230.207 757.858 230.812 757.858 231.58C757.858 232.628 758.246 233.42 759.021 233.957C759.805 234.486 760.798 234.75 762 234.75ZM776.047 237V217.364H779.064V237H776.047ZM777.581 214.091C776.993 214.091 776.485 213.891 776.059 213.49C775.642 213.089 775.433 212.608 775.433 212.045C775.433 211.483 775.642 211.001 776.059 210.601C776.485 210.2 776.993 210 777.581 210C778.169 210 778.672 210.2 779.089 210.601C779.515 211.001 779.728 211.483 779.728 212.045C779.728 212.608 779.515 213.089 779.089 213.49C778.672 213.891 778.169 214.091 777.581 214.091ZM787.607 210.818V237H784.589V210.818H787.607ZM793.132 237V217.364H796.15V237H793.132ZM794.667 214.091C794.078 214.091 793.571 213.891 793.145 213.49C792.728 213.089 792.519 212.608 792.519 212.045C792.519 211.483 792.728 211.001 793.145 210.601C793.571 210.2 794.078 210 794.667 210C795.255 210 795.757 210.2 796.175 210.601C796.601 211.001 796.814 211.483 796.814 212.045C796.814 212.608 796.601 213.089 796.175 213.49C795.757 213.891 795.255 214.091 794.667 214.091ZM807.454 237.46C806.21 237.46 805.08 237.226 804.066 236.757C803.052 236.28 802.246 235.594 801.65 234.699C801.053 233.795 800.755 232.705 800.755 231.426C800.755 230.301 800.977 229.389 801.42 228.69C801.863 227.983 802.455 227.429 803.197 227.028C803.938 226.628 804.756 226.33 805.651 226.134C806.555 225.929 807.462 225.767 808.374 225.648C809.567 225.494 810.535 225.379 811.276 225.303C812.026 225.217 812.572 225.077 812.913 224.881C813.262 224.685 813.437 224.344 813.437 223.858V223.756C813.437 222.494 813.092 221.514 812.401 220.815C811.719 220.116 810.684 219.767 809.295 219.767C807.854 219.767 806.725 220.082 805.907 220.713C805.089 221.344 804.513 222.017 804.181 222.733L801.317 221.71C801.829 220.517 802.511 219.588 803.363 218.923C804.224 218.25 805.161 217.781 806.175 217.517C807.198 217.244 808.204 217.108 809.192 217.108C809.823 217.108 810.548 217.185 811.366 217.338C812.192 217.483 812.989 217.786 813.756 218.246C814.532 218.706 815.175 219.401 815.687 220.33C816.198 221.259 816.454 222.503 816.454 224.062V237H813.437V234.341H813.283C813.079 234.767 812.738 235.223 812.261 235.709C811.783 236.195 811.148 236.608 810.356 236.949C809.563 237.29 808.596 237.46 807.454 237.46ZM807.914 234.75C809.107 234.75 810.113 234.516 810.931 234.047C811.758 233.578 812.38 232.973 812.798 232.232C813.224 231.49 813.437 230.71 813.437 229.892V227.131C813.309 227.284 813.028 227.425 812.593 227.553C812.167 227.672 811.673 227.778 811.11 227.872C810.556 227.957 810.015 228.034 809.487 228.102C808.967 228.162 808.545 228.213 808.221 228.256C807.437 228.358 806.704 228.524 806.022 228.754C805.349 228.976 804.803 229.312 804.386 229.764C803.977 230.207 803.772 230.812 803.772 231.58C803.772 232.628 804.16 233.42 804.935 233.957C805.719 234.486 806.712 234.75 807.914 234.75ZM835.87 221.761L833.159 222.528C832.989 222.077 832.738 221.638 832.405 221.212C832.081 220.777 831.638 220.419 831.076 220.138C830.513 219.857 829.793 219.716 828.915 219.716C827.713 219.716 826.712 219.993 825.911 220.547C825.118 221.092 824.722 221.787 824.722 222.631C824.722 223.381 824.995 223.973 825.54 224.408C826.086 224.842 826.938 225.205 828.097 225.494L831.012 226.21C832.767 226.636 834.076 227.288 834.936 228.166C835.797 229.036 836.228 230.156 836.228 231.528C836.228 232.653 835.904 233.659 835.256 234.545C834.617 235.432 833.722 236.131 832.571 236.642C831.421 237.153 830.083 237.409 828.557 237.409C826.554 237.409 824.897 236.974 823.584 236.105C822.272 235.236 821.441 233.966 821.091 232.295L823.955 231.58C824.228 232.636 824.743 233.429 825.502 233.957C826.269 234.486 827.27 234.75 828.506 234.75C829.912 234.75 831.029 234.452 831.855 233.855C832.691 233.25 833.108 232.526 833.108 231.682C833.108 231 832.87 230.429 832.392 229.969C831.915 229.5 831.182 229.151 830.194 228.92L826.921 228.153C825.123 227.727 823.801 227.067 822.958 226.172C822.123 225.268 821.705 224.139 821.705 222.784C821.705 221.676 822.016 220.696 822.638 219.844C823.269 218.991 824.125 218.322 825.208 217.837C826.299 217.351 827.534 217.108 828.915 217.108C830.858 217.108 832.384 217.534 833.492 218.386C834.608 219.239 835.401 220.364 835.87 221.761Z" fill="black"/>
<path d="M1220.5 313.5H1129V250H1194V275H1220.5V313.5Z" stroke="#00C2FF" stroke-width="13"/>
<path d="M357 216H454V149H385.093V175.378H357V216Z" stroke="#00C2FF" stroke-width="13"/>
<path d="M593 423H494V383.947H518.75V367H568.25V390.947H593V423Z" stroke="#00C2FF" stroke-width="13"/>
<path d="M369 329H300.227H280V290H330.433L369 329Z" stroke="#00C2FF" stroke-width="13"/>
<path d="M1106 204H1014V134.961H1037V105H1083V147.336H1106V204Z" stroke="#00C2FF" stroke-width="13"/>
<path d="M1007 417H1106V356H1033.49L1007 382.746V417Z" stroke="#00C2FF" stroke-width="13"/>
<path d="M556 95.5L574.5 77H613V111.5H630.5V149H556V95.5Z" stroke="#00C2FF" stroke-width="13"/>
<path d="M510.035 293V268.304H527.675V271.76H514.067V279.068H526.379V282.488H514.067V293H510.035ZM531.539 293V274.064H534.635L534.959 277.124H535.175C535.391 276.524 535.667 275.96 536.003 275.432C536.363 274.904 536.819 274.472 537.371 274.136C537.947 273.8 538.643 273.632 539.459 273.632C539.843 273.632 540.179 273.668 540.467 273.74C540.779 273.812 541.019 273.872 541.187 273.92V277.448H539.927C539.159 277.448 538.475 277.568 537.875 277.808C537.299 278.048 536.807 278.408 536.399 278.888C536.015 279.344 535.727 279.908 535.535 280.58C535.367 281.252 535.283 282.008 535.283 282.848V293H531.539ZM551.481 293.432C549.537 293.432 547.905 293.084 546.585 292.388C545.289 291.668 544.305 290.576 543.633 289.112C542.961 287.648 542.625 285.788 542.625 283.532C542.625 281.252 542.961 279.392 543.633 277.952C544.305 276.488 545.301 275.408 546.621 274.712C547.941 273.992 549.585 273.632 551.553 273.632C553.353 273.632 554.853 273.98 556.053 274.676C557.277 275.348 558.201 276.38 558.825 277.772C559.449 279.164 559.761 280.916 559.761 283.028V284.468H546.477C546.525 285.812 546.729 286.94 547.089 287.852C547.449 288.74 547.989 289.4 548.709 289.832C549.453 290.24 550.389 290.444 551.517 290.444C552.213 290.444 552.837 290.36 553.389 290.192C553.941 290 554.409 289.736 554.793 289.4C555.177 289.04 555.477 288.62 555.693 288.14C555.909 287.636 556.017 287.072 556.017 286.448H559.689C559.689 287.576 559.497 288.572 559.113 289.436C558.729 290.3 558.165 291.032 557.421 291.632C556.701 292.208 555.837 292.652 554.829 292.964C553.821 293.276 552.705 293.432 551.481 293.432ZM546.549 281.732H555.837C555.837 280.796 555.729 280.016 555.513 279.392C555.321 278.744 555.033 278.216 554.649 277.808C554.265 277.4 553.809 277.112 553.281 276.944C552.753 276.752 552.153 276.656 551.481 276.656C550.473 276.656 549.609 276.836 548.889 277.196C548.193 277.556 547.653 278.12 547.269 278.888C546.885 279.632 546.645 280.58 546.549 281.732ZM571.414 293.432C569.47 293.432 567.838 293.084 566.518 292.388C565.222 291.668 564.238 290.576 563.566 289.112C562.894 287.648 562.558 285.788 562.558 283.532C562.558 281.252 562.894 279.392 563.566 277.952C564.238 276.488 565.234 275.408 566.554 274.712C567.874 273.992 569.518 273.632 571.486 273.632C573.286 273.632 574.786 273.98 575.986 274.676C577.21 275.348 578.134 276.38 578.758 277.772C579.382 279.164 579.694 280.916 579.694 283.028V284.468H566.41C566.458 285.812 566.662 286.94 567.022 287.852C567.382 288.74 567.922 289.4 568.642 289.832C569.386 290.24 570.322 290.444 571.45 290.444C572.146 290.444 572.77 290.36 573.322 290.192C573.874 290 574.342 289.736 574.726 289.4C575.11 289.04 575.41 288.62 575.626 288.14C575.842 287.636 575.95 287.072 575.95 286.448H579.622C579.622 287.576 579.43 288.572 579.046 289.436C578.662 290.3 578.098 291.032 577.354 291.632C576.634 292.208 575.77 292.652 574.762 292.964C573.754 293.276 572.638 293.432 571.414 293.432ZM566.482 281.732H575.77C575.77 280.796 575.662 280.016 575.446 279.392C575.254 278.744 574.966 278.216 574.582 277.808C574.198 277.4 573.742 277.112 573.214 276.944C572.686 276.752 572.086 276.656 571.414 276.656C570.406 276.656 569.542 276.836 568.822 277.196C568.126 277.556 567.586 278.12 567.202 278.888C566.818 279.632 566.578 280.58 566.482 281.732ZM595.671 293.432C595.071 293.432 594.423 293.36 593.727 293.216C593.031 293.072 592.371 292.808 591.747 292.424C591.147 292.04 590.655 291.512 590.271 290.84C589.887 290.144 589.695 289.244 589.695 288.14C589.695 286.844 589.995 285.776 590.595 284.936C591.195 284.096 592.035 283.436 593.115 282.956C594.195 282.476 595.479 282.14 596.967 281.948C598.479 281.756 600.123 281.66 601.899 281.66V279.788C601.899 279.164 601.791 278.612 601.575 278.132C601.383 277.652 601.011 277.28 600.459 277.016C599.931 276.752 599.163 276.62 598.155 276.62C597.147 276.62 596.355 276.752 595.779 277.016C595.227 277.256 594.831 277.568 594.591 277.952C594.375 278.312 594.267 278.708 594.267 279.14V279.68H590.667C590.643 279.56 590.631 279.44 590.631 279.32C590.631 279.2 590.631 279.056 590.631 278.888C590.631 277.76 590.943 276.812 591.567 276.044C592.215 275.252 593.115 274.652 594.267 274.244C595.419 273.836 596.751 273.632 598.263 273.632C599.895 273.632 601.251 273.872 602.331 274.352C603.435 274.808 604.263 275.468 604.815 276.332C605.367 277.196 605.643 278.24 605.643 279.464V289.076C605.643 289.532 605.751 289.856 605.967 290.048C606.207 290.24 606.483 290.336 606.795 290.336H608.091V292.856C607.803 292.976 607.443 293.096 607.011 293.216C606.579 293.336 606.075 293.396 605.499 293.396C604.851 293.396 604.299 293.276 603.843 293.036C603.411 292.82 603.051 292.508 602.763 292.1C602.499 291.668 602.319 291.188 602.223 290.66H602.007C601.575 291.212 601.047 291.704 600.423 292.136C599.823 292.544 599.127 292.856 598.335 293.072C597.543 293.312 596.655 293.432 595.671 293.432ZM596.715 290.336C597.459 290.336 598.143 290.228 598.767 290.012C599.415 289.772 599.967 289.448 600.423 289.04C600.879 288.608 601.239 288.104 601.503 287.528C601.767 286.928 601.899 286.28 601.899 285.584V284.324C600.243 284.324 598.791 284.42 597.543 284.612C596.295 284.804 595.323 285.164 594.627 285.692C593.931 286.196 593.583 286.904 593.583 287.816C593.583 288.368 593.703 288.836 593.943 289.22C594.183 289.58 594.543 289.856 595.023 290.048C595.503 290.24 596.067 290.336 596.715 290.336ZM610.676 293V274.064H613.772L614.096 276.764H614.348C614.804 276.068 615.344 275.492 615.968 275.036C616.592 274.58 617.276 274.232 618.02 273.992C618.788 273.752 619.628 273.632 620.54 273.632C621.74 273.632 622.796 273.848 623.708 274.28C624.62 274.688 625.328 275.36 625.832 276.296C626.36 277.232 626.624 278.492 626.624 280.076V293H622.88V280.652C622.88 279.932 622.784 279.332 622.592 278.852C622.424 278.372 622.172 277.988 621.836 277.7C621.5 277.412 621.104 277.208 620.648 277.088C620.192 276.968 619.688 276.908 619.136 276.908C618.272 276.908 617.48 277.124 616.76 277.556C616.064 277.964 615.5 278.54 615.068 279.284C614.636 280.028 614.42 280.904 614.42 281.912V293H610.676ZM637.828 293.432C636.292 293.432 634.96 293.084 633.832 292.388C632.704 291.692 631.828 290.612 631.204 289.148C630.604 287.684 630.304 285.788 630.304 283.46C630.304 281.18 630.616 279.32 631.24 277.88C631.864 276.44 632.728 275.372 633.832 274.676C634.936 273.98 636.208 273.632 637.648 273.632C638.488 273.632 639.268 273.728 639.988 273.92C640.708 274.112 641.344 274.412 641.896 274.82C642.472 275.228 642.952 275.744 643.336 276.368H643.588V266.972H647.332V293H644.272L643.912 290.408H643.66C643.036 291.416 642.208 292.172 641.176 292.676C640.168 293.18 639.052 293.432 637.828 293.432ZM638.872 290.192C639.976 290.192 640.864 289.952 641.536 289.472C642.232 288.968 642.748 288.248 643.084 287.312C643.42 286.352 643.588 285.188 643.588 283.82V283.316C643.588 282.164 643.48 281.18 643.264 280.364C643.048 279.548 642.736 278.888 642.328 278.384C641.92 277.856 641.428 277.472 640.852 277.232C640.276 276.992 639.628 276.872 638.908 276.872C637.804 276.872 636.904 277.1 636.208 277.556C635.512 277.988 634.996 278.672 634.66 279.608C634.348 280.544 634.192 281.756 634.192 283.244V283.892C634.192 285.38 634.36 286.592 634.696 287.528C635.032 288.44 635.536 289.112 636.208 289.544C636.904 289.976 637.792 290.192 638.872 290.192ZM665.483 293.432C663.659 293.432 662.183 292.952 661.055 291.992C659.927 291.008 659.363 289.34 659.363 286.988V274.064H663.107V286.412C663.107 287.132 663.191 287.732 663.359 288.212C663.551 288.692 663.815 289.076 664.151 289.364C664.487 289.652 664.883 289.856 665.339 289.976C665.795 290.096 666.299 290.156 666.851 290.156C667.715 290.156 668.495 289.952 669.191 289.544C669.911 289.112 670.487 288.524 670.919 287.78C671.351 287.012 671.567 286.136 671.567 285.152V274.064H675.311V293H672.251L671.927 290.3H671.675C671.219 290.996 670.679 291.572 670.055 292.028C669.431 292.484 668.735 292.832 667.967 293.072C667.223 293.312 666.395 293.432 665.483 293.432ZM680.144 293V274.064H683.24L683.564 276.764H683.816C684.272 276.068 684.812 275.492 685.436 275.036C686.06 274.58 686.744 274.232 687.488 273.992C688.256 273.752 689.096 273.632 690.008 273.632C691.208 273.632 692.264 273.848 693.176 274.28C694.088 274.688 694.796 275.36 695.3 276.296C695.828 277.232 696.092 278.492 696.092 280.076V293H692.348V280.652C692.348 279.932 692.252 279.332 692.06 278.852C691.892 278.372 691.64 277.988 691.304 277.7C690.968 277.412 690.572 277.208 690.116 277.088C689.66 276.968 689.156 276.908 688.604 276.908C687.74 276.908 686.948 277.124 686.228 277.556C685.532 277.964 684.968 278.54 684.536 279.284C684.104 280.028 683.888 280.904 683.888 281.912V293H680.144ZM700.781 293V266.972H704.525V293H700.781ZM709.359 270.788V266.972H713.103V270.788H709.359ZM709.359 293V274.064H713.103V293H709.359ZM717.937 293V274.064H721.033L721.357 276.764H721.609C722.041 276.068 722.533 275.492 723.085 275.036C723.661 274.58 724.297 274.232 724.993 273.992C725.713 273.752 726.481 273.632 727.297 273.632C728.473 273.632 729.493 273.872 730.357 274.352C731.245 274.832 731.917 275.636 732.373 276.764H732.625C733.057 276.092 733.561 275.528 734.137 275.072C734.713 274.592 735.361 274.232 736.081 273.992C736.825 273.752 737.617 273.632 738.457 273.632C739.585 273.632 740.581 273.836 741.445 274.244C742.309 274.628 742.993 275.288 743.497 276.224C744.001 277.136 744.253 278.36 744.253 279.896V293H740.509V280.58C740.509 279.86 740.425 279.272 740.257 278.816C740.089 278.336 739.861 277.964 739.573 277.7C739.285 277.412 738.937 277.208 738.529 277.088C738.121 276.968 737.677 276.908 737.197 276.908C736.405 276.908 735.697 277.124 735.073 277.556C734.449 277.964 733.945 278.54 733.561 279.284C733.177 280.028 732.985 280.904 732.985 281.912V293H729.241V280.58C729.241 279.86 729.157 279.272 728.989 278.816C728.821 278.336 728.593 277.964 728.305 277.7C728.017 277.412 727.669 277.208 727.261 277.088C726.853 276.968 726.421 276.908 725.965 276.908C725.173 276.908 724.453 277.124 723.805 277.556C723.157 277.964 722.641 278.54 722.257 279.284C721.873 280.028 721.681 280.904 721.681 281.912V293H717.937ZM748.91 270.788V266.972H752.654V270.788H748.91ZM748.91 293V274.064H752.654V293H748.91ZM762.204 293.432C761.124 293.432 760.272 293.228 759.648 292.82C759.048 292.388 758.616 291.848 758.352 291.2C758.112 290.528 757.992 289.82 757.992 289.076V277.16H755.616V274.064H758.064L758.748 268.772H761.736V274.064H765.156V277.16H761.736V288.644C761.736 289.196 761.856 289.616 762.096 289.904C762.336 290.192 762.732 290.336 763.284 290.336H765.156V292.856C764.916 292.952 764.616 293.036 764.256 293.108C763.92 293.204 763.572 293.276 763.212 293.324C762.852 293.396 762.516 293.432 762.204 293.432ZM776.305 293.432C774.361 293.432 772.729 293.084 771.409 292.388C770.113 291.668 769.129 290.576 768.457 289.112C767.785 287.648 767.449 285.788 767.449 283.532C767.449 281.252 767.785 279.392 768.457 277.952C769.129 276.488 770.125 275.408 771.445 274.712C772.765 273.992 774.409 273.632 776.377 273.632C778.177 273.632 779.677 273.98 780.877 274.676C782.101 275.348 783.025 276.38 783.649 277.772C784.273 279.164 784.585 280.916 784.585 283.028V284.468H771.301C771.349 285.812 771.553 286.94 771.913 287.852C772.273 288.74 772.813 289.4 773.533 289.832C774.277 290.24 775.213 290.444 776.341 290.444C777.037 290.444 777.661 290.36 778.213 290.192C778.765 290 779.233 289.736 779.617 289.4C780.001 289.04 780.301 288.62 780.517 288.14C780.733 287.636 780.841 287.072 780.841 286.448H784.513C784.513 287.576 784.321 288.572 783.937 289.436C783.553 290.3 782.989 291.032 782.245 291.632C781.525 292.208 780.661 292.652 779.653 292.964C778.645 293.276 777.529 293.432 776.305 293.432ZM771.373 281.732H780.661C780.661 280.796 780.553 280.016 780.337 279.392C780.145 278.744 779.857 278.216 779.473 277.808C779.089 277.4 778.633 277.112 778.105 276.944C777.577 276.752 776.977 276.656 776.305 276.656C775.297 276.656 774.433 276.836 773.713 277.196C773.017 277.556 772.477 278.12 772.093 278.888C771.709 279.632 771.469 280.58 771.373 281.732ZM794.907 293.432C793.371 293.432 792.039 293.084 790.911 292.388C789.783 291.692 788.907 290.612 788.283 289.148C787.683 287.684 787.383 285.788 787.383 283.46C787.383 281.18 787.695 279.32 788.319 277.88C788.943 276.44 789.807 275.372 790.911 274.676C792.015 273.98 793.287 273.632 794.727 273.632C795.567 273.632 796.347 273.728 797.067 273.92C797.787 274.112 798.423 274.412 798.975 274.82C799.551 275.228 800.031 275.744 800.415 276.368H800.667V266.972H804.411V293H801.351L800.991 290.408H800.739C800.115 291.416 799.287 292.172 798.255 292.676C797.247 293.18 796.131 293.432 794.907 293.432ZM795.951 290.192C797.055 290.192 797.943 289.952 798.615 289.472C799.311 288.968 799.827 288.248 800.163 287.312C800.499 286.352 800.667 285.188 800.667 283.82V283.316C800.667 282.164 800.559 281.18 800.343 280.364C800.127 279.548 799.815 278.888 799.407 278.384C798.999 277.856 798.507 277.472 797.931 277.232C797.355 276.992 796.707 276.872 795.987 276.872C794.883 276.872 793.983 277.1 793.287 277.556C792.591 277.988 792.075 278.672 791.739 279.608C791.427 280.544 791.271 281.756 791.271 283.244V283.892C791.271 285.38 791.439 286.592 791.775 287.528C792.111 288.44 792.615 289.112 793.287 289.544C793.983 289.976 794.871 290.192 795.951 290.192ZM824.469 293.432C822.525 293.432 820.893 293.084 819.573 292.388C818.277 291.668 817.293 290.576 816.621 289.112C815.949 287.648 815.613 285.788 815.613 283.532C815.613 281.252 815.949 279.392 816.621 277.952C817.293 276.488 818.289 275.408 819.609 274.712C820.929 273.992 822.573 273.632 824.541 273.632C826.341 273.632 827.841 273.98 829.041 274.676C830.265 275.348 831.189 276.38 831.813 277.772C832.437 279.164 832.749 280.916 832.749 283.028V284.468H819.465C819.513 285.812 819.717 286.94 820.077 287.852C820.437 288.74 820.977 289.4 821.697 289.832C822.441 290.24 823.377 290.444 824.505 290.444C825.201 290.444 825.825 290.36 826.377 290.192C826.929 290 827.397 289.736 827.781 289.4C828.165 289.04 828.465 288.62 828.681 288.14C828.897 287.636 829.005 287.072 829.005 286.448H832.677C832.677 287.576 832.485 288.572 832.101 289.436C831.717 290.3 831.153 291.032 830.409 291.632C829.689 292.208 828.825 292.652 827.817 292.964C826.809 293.276 825.693 293.432 824.469 293.432ZM819.537 281.732H828.825C828.825 280.796 828.717 280.016 828.501 279.392C828.309 278.744 828.021 278.216 827.637 277.808C827.253 277.4 826.797 277.112 826.269 276.944C825.741 276.752 825.141 276.656 824.469 276.656C823.461 276.656 822.597 276.836 821.877 277.196C821.181 277.556 820.641 278.12 820.257 278.888C819.873 279.632 819.633 280.58 819.537 281.732ZM836.555 293V274.064H839.651L839.975 276.764H840.227C840.659 276.068 841.151 275.492 841.703 275.036C842.279 274.58 842.915 274.232 843.611 273.992C844.331 273.752 845.099 273.632 845.915 273.632C847.091 273.632 848.111 273.872 848.975 274.352C849.863 274.832 850.535 275.636 850.991 276.764H851.243C851.675 276.092 852.179 275.528 852.755 275.072C853.331 274.592 853.979 274.232 854.699 273.992C855.443 273.752 856.235 273.632 857.075 273.632C858.203 273.632 859.199 273.836 860.063 274.244C860.927 274.628 861.611 275.288 862.115 276.224C862.619 277.136 862.871 278.36 862.871 279.896V293H859.127V280.58C859.127 279.86 859.043 279.272 858.875 278.816C858.707 278.336 858.479 277.964 858.191 277.7C857.903 277.412 857.555 277.208 857.147 277.088C856.739 276.968 856.295 276.908 855.815 276.908C855.023 276.908 854.315 277.124 853.691 277.556C853.067 277.964 852.563 278.54 852.179 279.284C851.795 280.028 851.603 280.904 851.603 281.912V293H847.859V280.58C847.859 279.86 847.775 279.272 847.607 278.816C847.439 278.336 847.211 277.964 846.923 277.7C846.635 277.412 846.287 277.208 845.879 277.088C845.471 276.968 845.039 276.908 844.583 276.908C843.791 276.908 843.071 277.124 842.423 277.556C841.775 277.964 841.259 278.54 840.875 279.284C840.491 280.028 840.299 280.904 840.299 281.912V293H836.555ZM872.315 293.432C871.715 293.432 871.067 293.36 870.371 293.216C869.675 293.072 869.015 292.808 868.391 292.424C867.791 292.04 867.299 291.512 866.915 290.84C866.531 290.144 866.339 289.244 866.339 288.14C866.339 286.844 866.639 285.776 867.239 284.936C867.839 284.096 868.679 283.436 869.759 282.956C870.839 282.476 872.123 282.14 873.611 281.948C875.123 281.756 876.767 281.66 878.543 281.66V279.788C878.543 279.164 878.435 278.612 878.219 278.132C878.027 277.652 877.655 277.28 877.103 277.016C876.575 276.752 875.807 276.62 874.799 276.62C873.791 276.62 872.999 276.752 872.423 277.016C871.871 277.256 871.475 277.568 871.235 277.952C871.019 278.312 870.911 278.708 870.911 279.14V279.68H867.311C867.287 279.56 867.275 279.44 867.275 279.32C867.275 279.2 867.275 279.056 867.275 278.888C867.275 277.76 867.587 276.812 868.211 276.044C868.859 275.252 869.759 274.652 870.911 274.244C872.063 273.836 873.395 273.632 874.907 273.632C876.539 273.632 877.895 273.872 878.975 274.352C880.079 274.808 880.907 275.468 881.459 276.332C882.011 277.196 882.287 278.24 882.287 279.464V289.076C882.287 289.532 882.395 289.856 882.611 290.048C882.851 290.24 883.127 290.336 883.439 290.336H884.735V292.856C884.447 292.976 884.087 293.096 883.655 293.216C883.223 293.336 882.719 293.396 882.143 293.396C881.495 293.396 880.943 293.276 880.487 293.036C880.055 292.82 879.695 292.508 879.407 292.1C879.143 291.668 878.963 291.188 878.867 290.66H878.651C878.219 291.212 877.691 291.704 877.067 292.136C876.467 292.544 875.771 292.856 874.979 293.072C874.187 293.312 873.299 293.432 872.315 293.432ZM873.359 290.336C874.103 290.336 874.787 290.228 875.411 290.012C876.059 289.772 876.611 289.448 877.067 289.04C877.523 288.608 877.883 288.104 878.147 287.528C878.411 286.928 878.543 286.28 878.543 285.584V284.324C876.887 284.324 875.435 284.42 874.187 284.612C872.939 284.804 871.967 285.164 871.271 285.692C870.575 286.196 870.227 286.904 870.227 287.816C870.227 288.368 870.347 288.836 870.587 289.22C870.827 289.58 871.187 289.856 871.667 290.048C872.147 290.24 872.711 290.336 873.359 290.336ZM887.32 270.788V266.972H891.064V270.788H887.32ZM887.32 293V274.064H891.064V293H887.32ZM895.898 293V266.972H899.642V293H895.898ZM916.647 293.432C916.047 293.432 915.399 293.36 914.703 293.216C914.007 293.072 913.347 292.808 912.723 292.424C912.123 292.04 911.631 291.512 911.247 290.84C910.863 290.144 910.671 289.244 910.671 288.14C910.671 286.844 910.971 285.776 911.571 284.936C912.171 284.096 913.011 283.436 914.091 282.956C915.171 282.476 916.455 282.14 917.943 281.948C919.455 281.756 921.099 281.66 922.875 281.66V279.788C922.875 279.164 922.767 278.612 922.551 278.132C922.359 277.652 921.987 277.28 921.435 277.016C920.907 276.752 920.139 276.62 919.131 276.62C918.123 276.62 917.331 276.752 916.755 277.016C916.203 277.256 915.807 277.568 915.567 277.952C915.351 278.312 915.243 278.708 915.243 279.14V279.68H911.643C911.619 279.56 911.607 279.44 911.607 279.32C911.607 279.2 911.607 279.056 911.607 278.888C911.607 277.76 911.919 276.812 912.543 276.044C913.191 275.252 914.091 274.652 915.243 274.244C916.395 273.836 917.727 273.632 919.239 273.632C920.871 273.632 922.227 273.872 923.307 274.352C924.411 274.808 925.239 275.468 925.791 276.332C926.343 277.196 926.619 278.24 926.619 279.464V289.076C926.619 289.532 926.727 289.856 926.943 290.048C927.183 290.24 927.459 290.336 927.771 290.336H929.067V292.856C928.779 292.976 928.419 293.096 927.987 293.216C927.555 293.336 927.051 293.396 926.475 293.396C925.827 293.396 925.275 293.276 924.819 293.036C924.387 292.82 924.027 292.508 923.739 292.1C923.475 291.668 923.295 291.188 923.199 290.66H922.983C922.551 291.212 922.023 291.704 921.399 292.136C920.799 292.544 920.103 292.856 919.311 293.072C918.519 293.312 917.631 293.432 916.647 293.432ZM917.691 290.336C918.435 290.336 919.119 290.228 919.743 290.012C920.391 289.772 920.943 289.448 921.399 289.04C921.855 288.608 922.215 288.104 922.479 287.528C922.743 286.928 922.875 286.28 922.875 285.584V284.324C921.219 284.324 919.767 284.42 918.519 284.612C917.271 284.804 916.299 285.164 915.603 285.692C914.907 286.196 914.559 286.904 914.559 287.816C914.559 288.368 914.679 288.836 914.919 289.22C915.159 289.58 915.519 289.856 915.999 290.048C916.479 290.24 917.043 290.336 917.691 290.336ZM931.652 293V266.972H935.396V293H931.652ZM940.23 270.788V266.972H943.974V270.788H940.23ZM940.23 293V274.064H943.974V293H940.23ZM953.596 293.432C952.996 293.432 952.348 293.36 951.652 293.216C950.956 293.072 950.296 292.808 949.672 292.424C949.072 292.04 948.58 291.512 948.196 290.84C947.812 290.144 947.62 289.244 947.62 288.14C947.62 286.844 947.92 285.776 948.52 284.936C949.12 284.096 949.96 283.436 951.04 282.956C952.12 282.476 953.404 282.14 954.892 281.948C956.404 281.756 958.048 281.66 959.824 281.66V279.788C959.824 279.164 959.716 278.612 959.5 278.132C959.308 277.652 958.936 277.28 958.384 277.016C957.856 276.752 957.088 276.62 956.08 276.62C955.072 276.62 954.28 276.752 953.704 277.016C953.152 277.256 952.756 277.568 952.516 277.952C952.3 278.312 952.192 278.708 952.192 279.14V279.68H948.592C948.568 279.56 948.556 279.44 948.556 279.32C948.556 279.2 948.556 279.056 948.556 278.888C948.556 277.76 948.868 276.812 949.492 276.044C950.14 275.252 951.04 274.652 952.192 274.244C953.344 273.836 954.676 273.632 956.188 273.632C957.82 273.632 959.176 273.872 960.256 274.352C961.36 274.808 962.188 275.468 962.74 276.332C963.292 277.196 963.568 278.24 963.568 279.464V289.076C963.568 289.532 963.676 289.856 963.892 290.048C964.132 290.24 964.408 290.336 964.72 290.336H966.016V292.856C965.728 292.976 965.368 293.096 964.936 293.216C964.504 293.336 964 293.396 963.424 293.396C962.776 293.396 962.224 293.276 961.768 293.036C961.336 292.82 960.976 292.508 960.688 292.1C960.424 291.668 960.244 291.188 960.148 290.66H959.932C959.5 291.212 958.972 291.704 958.348 292.136C957.748 292.544 957.052 292.856 956.26 293.072C955.468 293.312 954.58 293.432 953.596 293.432ZM954.64 290.336C955.384 290.336 956.068 290.228 956.692 290.012C957.34 289.772 957.892 289.448 958.348 289.04C958.804 288.608 959.164 288.104 959.428 287.528C959.692 286.928 959.824 286.28 959.824 285.584V284.324C958.168 284.324 956.716 284.42 955.468 284.612C954.22 284.804 953.248 285.164 952.552 285.692C951.856 286.196 951.508 286.904 951.508 287.816C951.508 288.368 951.628 288.836 951.868 289.22C952.108 289.58 952.468 289.856 952.948 290.048C953.428 290.24 953.992 290.336 954.64 290.336ZM975.585 293.432C974.265 293.432 973.101 293.288 972.093 293C971.085 292.712 970.245 292.316 969.573 291.812C968.901 291.308 968.385 290.708 968.025 290.012C967.689 289.292 967.521 288.5 967.521 287.636C967.521 287.516 967.521 287.408 967.521 287.312C967.545 287.216 967.557 287.132 967.557 287.06H971.265C971.265 287.132 971.265 287.204 971.265 287.276C971.265 287.324 971.265 287.384 971.265 287.456C971.265 288.2 971.469 288.8 971.877 289.256C972.285 289.688 972.825 290 973.497 290.192C974.193 290.36 974.949 290.444 975.765 290.444C976.485 290.444 977.145 290.36 977.745 290.192C978.369 290 978.873 289.724 979.257 289.364C979.665 289.004 979.869 288.548 979.869 287.996C979.869 287.276 979.617 286.724 979.113 286.34C978.609 285.956 977.949 285.656 977.133 285.44C976.317 285.2 975.465 284.948 974.577 284.684C973.785 284.468 972.993 284.24 972.201 284C971.433 283.736 970.737 283.4 970.113 282.992C969.489 282.584 968.985 282.068 968.601 281.444C968.217 280.82 968.025 280.04 968.025 279.104C968.025 278.216 968.217 277.436 968.601 276.764C968.985 276.092 969.513 275.528 970.185 275.072C970.881 274.616 971.697 274.268 972.633 274.028C973.593 273.788 974.637 273.668 975.765 273.668C976.941 273.668 977.985 273.8 978.897 274.064C979.809 274.304 980.577 274.652 981.201 275.108C981.849 275.564 982.341 276.116 982.677 276.764C983.013 277.388 983.181 278.06 983.181 278.78C983.181 278.924 983.169 279.08 983.145 279.248C983.145 279.392 983.145 279.488 983.145 279.536H979.473V279.212C979.473 278.732 979.341 278.3 979.077 277.916C978.813 277.532 978.393 277.22 977.817 276.98C977.265 276.74 976.521 276.62 975.585 276.62C974.961 276.62 974.409 276.68 973.929 276.8C973.449 276.896 973.053 277.04 972.741 277.232C972.429 277.424 972.189 277.652 972.021 277.916C971.877 278.18 971.805 278.48 971.805 278.816C971.805 279.368 971.997 279.8 972.381 280.112C972.789 280.4 973.317 280.652 973.965 280.868C974.613 281.06 975.309 281.276 976.053 281.516C976.917 281.756 977.793 282.008 978.681 282.272C979.569 282.512 980.385 282.824 981.129 283.208C981.897 283.592 982.509 284.12 982.965 284.792C983.445 285.464 983.685 286.364 983.685 287.492C983.685 288.524 983.481 289.424 983.073 290.192C982.665 290.96 982.089 291.584 981.345 292.064C980.625 292.52 979.773 292.856 978.789 293.072C977.805 293.312 976.737 293.432 975.585 293.432ZM995.328 293.432C993.384 293.432 991.752 293.084 990.432 292.388C989.136 291.668 988.152 290.576 987.48 289.112C986.808 287.648 986.472 285.788 986.472 283.532C986.472 281.252 986.808 279.392 987.48 277.952C988.152 276.488 989.148 275.408 990.468 274.712C991.788 273.992 993.432 273.632 995.4 273.632C997.2 273.632 998.7 273.98 999.9 274.676C1001.12 275.348 1002.05 276.38 1002.67 277.772C1003.3 279.164 1003.61 280.916 1003.61 283.028V284.468H990.324C990.372 285.812 990.576 286.94 990.936 287.852C991.296 288.74 991.836 289.4 992.556 289.832C993.3 290.24 994.236 290.444 995.364 290.444C996.06 290.444 996.684 290.36 997.236 290.192C997.788 290 998.256 289.736 998.64 289.4C999.024 289.04 999.324 288.62 999.54 288.14C999.756 287.636 999.864 287.072 999.864 286.448H1003.54C1003.54 287.576 1003.34 288.572 1002.96 289.436C1002.58 290.3 1002.01 291.032 1001.27 291.632C1000.55 292.208 999.684 292.652 998.676 292.964C997.668 293.276 996.552 293.432 995.328 293.432ZM990.396 281.732H999.684C999.684 280.796 999.576 280.016 999.36 279.392C999.168 278.744 998.88 278.216 998.496 277.808C998.112 277.4 997.656 277.112 997.128 276.944C996.6 276.752 996 276.656 995.328 276.656C994.32 276.656 993.456 276.836 992.736 277.196C992.04 277.556 991.5 278.12 991.116 278.888C990.732 279.632 990.492 280.58 990.396 281.732ZM1014.4 293.432C1013.08 293.432 1011.91 293.288 1010.91 293C1009.9 292.712 1009.06 292.316 1008.39 291.812C1007.71 291.308 1007.2 290.708 1006.84 290.012C1006.5 289.292 1006.33 288.5 1006.33 287.636C1006.33 287.516 1006.33 287.408 1006.33 287.312C1006.36 287.216 1006.37 287.132 1006.37 287.06H1010.08C1010.08 287.132 1010.08 287.204 1010.08 287.276C1010.08 287.324 1010.08 287.384 1010.08 287.456C1010.08 288.2 1010.28 288.8 1010.69 289.256C1011.1 289.688 1011.64 290 1012.31 290.192C1013.01 290.36 1013.76 290.444 1014.58 290.444C1015.3 290.444 1015.96 290.36 1016.56 290.192C1017.18 290 1017.69 289.724 1018.07 289.364C1018.48 289.004 1018.68 288.548 1018.68 287.996C1018.68 287.276 1018.43 286.724 1017.93 286.34C1017.42 285.956 1016.76 285.656 1015.95 285.44C1015.13 285.2 1014.28 284.948 1013.39 284.684C1012.6 284.468 1011.81 284.24 1011.01 284C1010.25 283.736 1009.55 283.4 1008.93 282.992C1008.3 282.584 1007.8 282.068 1007.41 281.444C1007.03 280.82 1006.84 280.04 1006.84 279.104C1006.84 278.216 1007.03 277.436 1007.41 276.764C1007.8 276.092 1008.33 275.528 1009 275.072C1009.69 274.616 1010.51 274.268 1011.45 274.028C1012.41 273.788 1013.45 273.668 1014.58 273.668C1015.75 273.668 1016.8 273.8 1017.71 274.064C1018.62 274.304 1019.39 274.652 1020.01 275.108C1020.66 275.564 1021.15 276.116 1021.49 276.764C1021.83 277.388 1021.99 278.06 1021.99 278.78C1021.99 278.924 1021.98 279.08 1021.96 279.248C1021.96 279.392 1021.96 279.488 1021.96 279.536H1018.29V279.212C1018.29 278.732 1018.15 278.3 1017.89 277.916C1017.63 277.532 1017.21 277.22 1016.63 276.98C1016.08 276.74 1015.33 276.62 1014.4 276.62C1013.77 276.62 1013.22 276.68 1012.74 276.8C1012.26 276.896 1011.87 277.04 1011.55 277.232C1011.24 277.424 1011 277.652 1010.83 277.916C1010.69 278.18 1010.62 278.48 1010.62 278.816C1010.62 279.368 1010.81 279.8 1011.19 280.112C1011.6 280.4 1012.13 280.652 1012.78 280.868C1013.43 281.06 1014.12 281.276 1014.87 281.516C1015.73 281.756 1016.61 282.008 1017.49 282.272C1018.38 282.512 1019.2 282.824 1019.94 283.208C1020.71 283.592 1021.32 284.12 1021.78 284.792C1022.26 285.464 1022.5 286.364 1022.5 287.492C1022.5 288.524 1022.29 289.424 1021.89 290.192C1021.48 290.96 1020.9 291.584 1020.16 292.064C1019.44 292.52 1018.59 292.856 1017.6 293.072C1016.62 293.312 1015.55 293.432 1014.4 293.432Z" fill="black"/>
<g opacity="0.05">
<path d="M1480 41C1480 52.598 1470.6 62 1459 62C1447.4 62 1438 52.598 1438 41C1438 29.402 1447.4 20 1459 20C1470.6 20 1480 29.402 1480 41Z" stroke="black" stroke-width="6"/>
<path d="M1480 41C1480 29.402 1470.6 20 1459 20" stroke="black" stroke-width="15" stroke-linecap="round"/>
</g>
</svg>
