<svg width="1080" height="400" viewBox="0 0 1080 400" fill="none" xmlns="http://www.w3.org/2000/svg">
<g clip-path="url(#clip0_12_94)">
<rect width="1080" height="400" fill="#00C2FF"/>
<path d="M-54 260.429V399C-54 404.523 -49.5228 409 -44 409H1124C1129.52 409 1134 404.523 1134 399V260.429H540H-54Z" fill="white"/>
<path d="M-54 -7L540 260.429L1134 -7H-54Z" fill="white"/>
<path d="M540 260.429L-54 -7V260.429H540Z" fill="white"/>
<path d="M1134 -7L540 260.429H1134V-7Z" fill="white"/>
<path d="M-54 -7L540 260.429M-54 -7V260.429M-54 -7H1134M540 260.429L1134 -7M540 260.429H1134M540 260.429H-54M1134 -7V260.429M1134 260.429V399C1134 404.523 1129.52 409 1124 409H-44C-49.5228 409 -54 404.523 -54 399V260.429" stroke="white" stroke-width="5"/>
<path d="M467 180V185C467 190.523 471.477 195 477 195H511C516.523 195 521 190.523 521 185V180H494H467Z" fill="#E3E3E3"/>
<path d="M467 153L494 180L521 153H467Z" fill="#00C2FF"/>
<path d="M494 180L467 153V180H494Z" fill="white"/>
<path d="M521 153L494 180H521V153Z" fill="white"/>
<path d="M467 153L494 180M467 153V180M467 153H521M494 180L521 153M494 180H521M494 180H467M521 153V180M521 180V185C521 190.523 516.523 195 511 195H477C471.477 195 467 190.523 467 185V180" stroke="black" stroke-width="5"/>
<path d="M535.54 186.46C534.295 186.46 533.166 186.226 532.152 185.757C531.138 185.28 530.332 184.594 529.736 183.699C529.139 182.795 528.841 181.705 528.841 180.426C528.841 179.301 529.063 178.389 529.506 177.69C529.949 176.983 530.541 176.429 531.283 176.028C532.024 175.628 532.842 175.33 533.737 175.134C534.641 174.929 535.548 174.767 536.46 174.648C537.653 174.494 538.621 174.379 539.362 174.303C540.112 174.217 540.658 174.077 540.999 173.881C541.348 173.685 541.523 173.344 541.523 172.858V172.756C541.523 171.494 541.178 170.514 540.487 169.815C539.805 169.116 538.77 168.767 537.381 168.767C535.94 168.767 534.811 169.082 533.993 169.713C533.175 170.344 532.599 171.017 532.267 171.733L529.403 170.71C529.915 169.517 530.597 168.588 531.449 167.923C532.31 167.25 533.247 166.781 534.261 166.517C535.284 166.244 536.29 166.108 537.278 166.108C537.909 166.108 538.634 166.185 539.452 166.338C540.278 166.483 541.075 166.786 541.842 167.246C542.618 167.706 543.261 168.401 543.773 169.33C544.284 170.259 544.54 171.503 544.54 173.062V186H541.523V183.341H541.369C541.165 183.767 540.824 184.223 540.347 184.709C539.869 185.195 539.234 185.608 538.442 185.949C537.649 186.29 536.682 186.46 535.54 186.46ZM536 183.75C537.193 183.75 538.199 183.516 539.017 183.047C539.844 182.578 540.466 181.973 540.884 181.232C541.31 180.49 541.523 179.71 541.523 178.892V176.131C541.395 176.284 541.114 176.425 540.679 176.553C540.253 176.672 539.759 176.778 539.196 176.872C538.642 176.957 538.101 177.034 537.572 177.102C537.053 177.162 536.631 177.213 536.307 177.256C535.523 177.358 534.79 177.524 534.108 177.754C533.435 177.976 532.889 178.312 532.472 178.764C532.063 179.207 531.858 179.812 531.858 180.58C531.858 181.628 532.246 182.42 533.021 182.957C533.805 183.486 534.798 183.75 536 183.75ZM550.047 186V166.364H553.064V186H550.047ZM551.581 163.091C550.993 163.091 550.485 162.891 550.059 162.49C549.642 162.089 549.433 161.608 549.433 161.045C549.433 160.483 549.642 160.001 550.059 159.601C550.485 159.2 550.993 159 551.581 159C552.169 159 552.672 159.2 553.089 159.601C553.515 160.001 553.728 160.483 553.728 161.045C553.728 161.608 553.515 162.089 553.089 162.49C552.672 162.891 552.169 163.091 551.581 163.091ZM561.607 159.818V186H558.589V159.818H561.607ZM567.132 186V166.364H570.15V186H567.132ZM568.667 163.091C568.078 163.091 567.571 162.891 567.145 162.49C566.728 162.089 566.519 161.608 566.519 161.045C566.519 160.483 566.728 160.001 567.145 159.601C567.571 159.2 568.078 159 568.667 159C569.255 159 569.757 159.2 570.175 159.601C570.601 160.001 570.814 160.483 570.814 161.045C570.814 161.608 570.601 162.089 570.175 162.49C569.757 162.891 569.255 163.091 568.667 163.091ZM581.454 186.46C580.21 186.46 579.08 186.226 578.066 185.757C577.052 185.28 576.246 184.594 575.65 183.699C575.053 182.795 574.755 181.705 574.755 180.426C574.755 179.301 574.977 178.389 575.42 177.69C575.863 176.983 576.455 176.429 577.197 176.028C577.938 175.628 578.756 175.33 579.651 175.134C580.555 174.929 581.462 174.767 582.374 174.648C583.567 174.494 584.535 174.379 585.276 174.303C586.026 174.217 586.572 174.077 586.913 173.881C587.262 173.685 587.437 173.344 587.437 172.858V172.756C587.437 171.494 587.092 170.514 586.401 169.815C585.719 169.116 584.684 168.767 583.295 168.767C581.854 168.767 580.725 169.082 579.907 169.713C579.089 170.344 578.513 171.017 578.181 171.733L575.317 170.71C575.829 169.517 576.511 168.588 577.363 167.923C578.224 167.25 579.161 166.781 580.175 166.517C581.198 166.244 582.204 166.108 583.192 166.108C583.823 166.108 584.548 166.185 585.366 166.338C586.192 166.483 586.989 166.786 587.756 167.246C588.532 167.706 589.175 168.401 589.687 169.33C590.198 170.259 590.454 171.503 590.454 173.062V186H587.437V183.341H587.283C587.079 183.767 586.738 184.223 586.261 184.709C585.783 185.195 585.148 185.608 584.356 185.949C583.563 186.29 582.596 186.46 581.454 186.46ZM581.914 183.75C583.107 183.75 584.113 183.516 584.931 183.047C585.758 182.578 586.38 181.973 586.798 181.232C587.224 180.49 587.437 179.71 587.437 178.892V176.131C587.309 176.284 587.028 176.425 586.593 176.553C586.167 176.672 585.673 176.778 585.11 176.872C584.556 176.957 584.015 177.034 583.487 177.102C582.967 177.162 582.545 177.213 582.221 177.256C581.437 177.358 580.704 177.524 580.022 177.754C579.349 177.976 578.803 178.312 578.386 178.764C577.977 179.207 577.772 179.812 577.772 180.58C577.772 181.628 578.16 182.42 578.935 182.957C579.719 183.486 580.712 183.75 581.914 183.75ZM609.87 170.761L607.159 171.528C606.989 171.077 606.738 170.638 606.405 170.212C606.081 169.777 605.638 169.419 605.076 169.138C604.513 168.857 603.793 168.716 602.915 168.716C601.713 168.716 600.712 168.993 599.911 169.547C599.118 170.092 598.722 170.787 598.722 171.631C598.722 172.381 598.995 172.973 599.54 173.408C600.086 173.842 600.938 174.205 602.097 174.494L605.012 175.21C606.767 175.636 608.076 176.288 608.936 177.166C609.797 178.036 610.228 179.156 610.228 180.528C610.228 181.653 609.904 182.659 609.256 183.545C608.617 184.432 607.722 185.131 606.571 185.642C605.421 186.153 604.083 186.409 602.557 186.409C600.554 186.409 598.897 185.974 597.584 185.105C596.272 184.236 595.441 182.966 595.091 181.295L597.955 180.58C598.228 181.636 598.743 182.429 599.502 182.957C600.269 183.486 601.27 183.75 602.506 183.75C603.912 183.75 605.029 183.452 605.855 182.855C606.691 182.25 607.108 181.526 607.108 180.682C607.108 180 606.87 179.429 606.392 178.969C605.915 178.5 605.182 178.151 604.194 177.92L600.921 177.153C599.123 176.727 597.801 176.067 596.958 175.172C596.123 174.268 595.705 173.139 595.705 171.784C595.705 170.676 596.016 169.696 596.638 168.844C597.269 167.991 598.125 167.322 599.208 166.837C600.299 166.351 601.534 166.108 602.915 166.108C604.858 166.108 606.384 166.534 607.492 167.386C608.608 168.239 609.401 169.364 609.87 170.761Z" fill="black"/>
<path d="M994.5 262.5H903V199H968V224H994.5V262.5Z" stroke="#00C2FF" stroke-width="13"/>
<path d="M131 165H228V98H159.093V124.378H131V165Z" stroke="#00C2FF" stroke-width="13"/>
<path d="M367 372H268V332.947H292.75V316H342.25V339.947H367V372Z" stroke="#00C2FF" stroke-width="13"/>
<path d="M143 278H74.2273H54V239H104.433L143 278Z" stroke="#00C2FF" stroke-width="13"/>
<path d="M880 153H788V83.9605H811V54H857V96.3355H880V153Z" stroke="#00C2FF" stroke-width="13"/>
<path d="M781 366H880V305H807.493L781 331.746V366Z" stroke="#00C2FF" stroke-width="13"/>
<path d="M330 44.5L348.5 26H387V60.5H404.5V98H330V44.5Z" stroke="#00C2FF" stroke-width="13"/>
<path d="M284.035 242V217.304H301.675V220.76H288.067V228.068H300.379V231.488H288.067V242H284.035ZM305.539 242V223.064H308.635L308.959 226.124H309.175C309.391 225.524 309.667 224.96 310.003 224.432C310.363 223.904 310.819 223.472 311.371 223.136C311.947 222.8 312.643 222.632 313.459 222.632C313.843 222.632 314.179 222.668 314.467 222.74C314.779 222.812 315.019 222.872 315.187 222.92V226.448H313.927C313.159 226.448 312.475 226.568 311.875 226.808C311.299 227.048 310.807 227.408 310.399 227.888C310.015 228.344 309.727 228.908 309.535 229.58C309.367 230.252 309.283 231.008 309.283 231.848V242H305.539ZM325.481 242.432C323.537 242.432 321.905 242.084 320.585 241.388C319.289 240.668 318.305 239.576 317.633 238.112C316.961 236.648 316.625 234.788 316.625 232.532C316.625 230.252 316.961 228.392 317.633 226.952C318.305 225.488 319.301 224.408 320.621 223.712C321.941 222.992 323.585 222.632 325.553 222.632C327.353 222.632 328.853 222.98 330.053 223.676C331.277 224.348 332.201 225.38 332.825 226.772C333.449 228.164 333.761 229.916 333.761 232.028V233.468H320.477C320.525 234.812 320.729 235.94 321.089 236.852C321.449 237.74 321.989 238.4 322.709 238.832C323.453 239.24 324.389 239.444 325.517 239.444C326.213 239.444 326.837 239.36 327.389 239.192C327.941 239 328.409 238.736 328.793 238.4C329.177 238.04 329.477 237.62 329.693 237.14C329.909 236.636 330.017 236.072 330.017 235.448H333.689C333.689 236.576 333.497 237.572 333.113 238.436C332.729 239.3 332.165 240.032 331.421 240.632C330.701 241.208 329.837 241.652 328.829 241.964C327.821 242.276 326.705 242.432 325.481 242.432ZM320.549 230.732H329.837C329.837 229.796 329.729 229.016 329.513 228.392C329.321 227.744 329.033 227.216 328.649 226.808C328.265 226.4 327.809 226.112 327.281 225.944C326.753 225.752 326.153 225.656 325.481 225.656C324.473 225.656 323.609 225.836 322.889 226.196C322.193 226.556 321.653 227.12 321.269 227.888C320.885 228.632 320.645 229.58 320.549 230.732ZM345.414 242.432C343.47 242.432 341.838 242.084 340.518 241.388C339.222 240.668 338.238 239.576 337.566 238.112C336.894 236.648 336.558 234.788 336.558 232.532C336.558 230.252 336.894 228.392 337.566 226.952C338.238 225.488 339.234 224.408 340.554 223.712C341.874 222.992 343.518 222.632 345.486 222.632C347.286 222.632 348.786 222.98 349.986 223.676C351.21 224.348 352.134 225.38 352.758 226.772C353.382 228.164 353.694 229.916 353.694 232.028V233.468H340.41C340.458 234.812 340.662 235.94 341.022 236.852C341.382 237.74 341.922 238.4 342.642 238.832C343.386 239.24 344.322 239.444 345.45 239.444C346.146 239.444 346.77 239.36 347.322 239.192C347.874 239 348.342 238.736 348.726 238.4C349.11 238.04 349.41 237.62 349.626 237.14C349.842 236.636 349.95 236.072 349.95 235.448H353.622C353.622 236.576 353.43 237.572 353.046 238.436C352.662 239.3 352.098 240.032 351.354 240.632C350.634 241.208 349.77 241.652 348.762 241.964C347.754 242.276 346.638 242.432 345.414 242.432ZM340.482 230.732H349.77C349.77 229.796 349.662 229.016 349.446 228.392C349.254 227.744 348.966 227.216 348.582 226.808C348.198 226.4 347.742 226.112 347.214 225.944C346.686 225.752 346.086 225.656 345.414 225.656C344.406 225.656 343.542 225.836 342.822 226.196C342.126 226.556 341.586 227.12 341.202 227.888C340.818 228.632 340.578 229.58 340.482 230.732ZM369.671 242.432C369.071 242.432 368.423 242.36 367.727 242.216C367.031 242.072 366.371 241.808 365.747 241.424C365.147 241.04 364.655 240.512 364.271 239.84C363.887 239.144 363.695 238.244 363.695 237.14C363.695 235.844 363.995 234.776 364.595 233.936C365.195 233.096 366.035 232.436 367.115 231.956C368.195 231.476 369.479 231.14 370.967 230.948C372.479 230.756 374.123 230.66 375.899 230.66V228.788C375.899 228.164 375.791 227.612 375.575 227.132C375.383 226.652 375.011 226.28 374.459 226.016C373.931 225.752 373.163 225.62 372.155 225.62C371.147 225.62 370.355 225.752 369.779 226.016C369.227 226.256 368.831 226.568 368.591 226.952C368.375 227.312 368.267 227.708 368.267 228.14V228.68H364.667C364.643 228.56 364.631 228.44 364.631 228.32C364.631 228.2 364.631 228.056 364.631 227.888C364.631 226.76 364.943 225.812 365.567 225.044C366.215 224.252 367.115 223.652 368.267 223.244C369.419 222.836 370.751 222.632 372.263 222.632C373.895 222.632 375.251 222.872 376.331 223.352C377.435 223.808 378.263 224.468 378.815 225.332C379.367 226.196 379.643 227.24 379.643 228.464V238.076C379.643 238.532 379.751 238.856 379.967 239.048C380.207 239.24 380.483 239.336 380.795 239.336H382.091V241.856C381.803 241.976 381.443 242.096 381.011 242.216C380.579 242.336 380.075 242.396 379.499 242.396C378.851 242.396 378.299 242.276 377.843 242.036C377.411 241.82 377.051 241.508 376.763 241.1C376.499 240.668 376.319 240.188 376.223 239.66H376.007C375.575 240.212 375.047 240.704 374.423 241.136C373.823 241.544 373.127 241.856 372.335 242.072C371.543 242.312 370.655 242.432 369.671 242.432ZM370.715 239.336C371.459 239.336 372.143 239.228 372.767 239.012C373.415 238.772 373.967 238.448 374.423 238.04C374.879 237.608 375.239 237.104 375.503 236.528C375.767 235.928 375.899 235.28 375.899 234.584V233.324C374.243 233.324 372.791 233.42 371.543 233.612C370.295 233.804 369.323 234.164 368.627 234.692C367.931 235.196 367.583 235.904 367.583 236.816C367.583 237.368 367.703 237.836 367.943 238.22C368.183 238.58 368.543 238.856 369.023 239.048C369.503 239.24 370.067 239.336 370.715 239.336ZM384.676 242V223.064H387.772L388.096 225.764H388.348C388.804 225.068 389.344 224.492 389.968 224.036C390.592 223.58 391.276 223.232 392.02 222.992C392.788 222.752 393.628 222.632 394.54 222.632C395.74 222.632 396.796 222.848 397.708 223.28C398.62 223.688 399.328 224.36 399.832 225.296C400.36 226.232 400.624 227.492 400.624 229.076V242H396.88V229.652C396.88 228.932 396.784 228.332 396.592 227.852C396.424 227.372 396.172 226.988 395.836 226.7C395.5 226.412 395.104 226.208 394.648 226.088C394.192 225.968 393.688 225.908 393.136 225.908C392.272 225.908 391.48 226.124 390.76 226.556C390.064 226.964 389.5 227.54 389.068 228.284C388.636 229.028 388.42 229.904 388.42 230.912V242H384.676ZM411.828 242.432C410.292 242.432 408.96 242.084 407.832 241.388C406.704 240.692 405.828 239.612 405.204 238.148C404.604 236.684 404.304 234.788 404.304 232.46C404.304 230.18 404.616 228.32 405.24 226.88C405.864 225.44 406.728 224.372 407.832 223.676C408.936 222.98 410.208 222.632 411.648 222.632C412.488 222.632 413.268 222.728 413.988 222.92C414.708 223.112 415.344 223.412 415.896 223.82C416.472 224.228 416.952 224.744 417.336 225.368H417.588V215.972H421.332V242H418.272L417.912 239.408H417.66C417.036 240.416 416.208 241.172 415.176 241.676C414.168 242.18 413.052 242.432 411.828 242.432ZM412.872 239.192C413.976 239.192 414.864 238.952 415.536 238.472C416.232 237.968 416.748 237.248 417.084 236.312C417.42 235.352 417.588 234.188 417.588 232.82V232.316C417.588 231.164 417.48 230.18 417.264 229.364C417.048 228.548 416.736 227.888 416.328 227.384C415.92 226.856 415.428 226.472 414.852 226.232C414.276 225.992 413.628 225.872 412.908 225.872C411.804 225.872 410.904 226.1 410.208 226.556C409.512 226.988 408.996 227.672 408.66 228.608C408.348 229.544 408.192 230.756 408.192 232.244V232.892C408.192 234.38 408.36 235.592 408.696 236.528C409.032 237.44 409.536 238.112 410.208 238.544C410.904 238.976 411.792 239.192 412.872 239.192ZM439.483 242.432C437.659 242.432 436.183 241.952 435.055 240.992C433.927 240.008 433.363 238.34 433.363 235.988V223.064H437.107V235.412C437.107 236.132 437.191 236.732 437.359 237.212C437.551 237.692 437.815 238.076 438.151 238.364C438.487 238.652 438.883 238.856 439.339 238.976C439.795 239.096 440.299 239.156 440.851 239.156C441.715 239.156 442.495 238.952 443.191 238.544C443.911 238.112 444.487 237.524 444.919 236.78C445.351 236.012 445.567 235.136 445.567 234.152V223.064H449.311V242H446.251L445.927 239.3H445.675C445.219 239.996 444.679 240.572 444.055 241.028C443.431 241.484 442.735 241.832 441.967 242.072C441.223 242.312 440.395 242.432 439.483 242.432ZM454.144 242V223.064H457.24L457.564 225.764H457.816C458.272 225.068 458.812 224.492 459.436 224.036C460.06 223.58 460.744 223.232 461.488 222.992C462.256 222.752 463.096 222.632 464.008 222.632C465.208 222.632 466.264 222.848 467.176 223.28C468.088 223.688 468.796 224.36 469.3 225.296C469.828 226.232 470.092 227.492 470.092 229.076V242H466.348V229.652C466.348 228.932 466.252 228.332 466.06 227.852C465.892 227.372 465.64 226.988 465.304 226.7C464.968 226.412 464.572 226.208 464.116 226.088C463.66 225.968 463.156 225.908 462.604 225.908C461.74 225.908 460.948 226.124 460.228 226.556C459.532 226.964 458.968 227.54 458.536 228.284C458.104 229.028 457.888 229.904 457.888 230.912V242H454.144ZM474.781 242V215.972H478.525V242H474.781ZM483.359 219.788V215.972H487.103V219.788H483.359ZM483.359 242V223.064H487.103V242H483.359ZM491.937 242V223.064H495.033L495.357 225.764H495.609C496.041 225.068 496.533 224.492 497.085 224.036C497.661 223.58 498.297 223.232 498.993 222.992C499.713 222.752 500.481 222.632 501.297 222.632C502.473 222.632 503.493 222.872 504.357 223.352C505.245 223.832 505.917 224.636 506.373 225.764H506.625C507.057 225.092 507.561 224.528 508.137 224.072C508.713 223.592 509.361 223.232 510.081 222.992C510.825 222.752 511.617 222.632 512.457 222.632C513.585 222.632 514.581 222.836 515.445 223.244C516.309 223.628 516.993 224.288 517.497 225.224C518.001 226.136 518.253 227.36 518.253 228.896V242H514.509V229.58C514.509 228.86 514.425 228.272 514.257 227.816C514.089 227.336 513.861 226.964 513.573 226.7C513.285 226.412 512.937 226.208 512.529 226.088C512.121 225.968 511.677 225.908 511.197 225.908C510.405 225.908 509.697 226.124 509.073 226.556C508.449 226.964 507.945 227.54 507.561 228.284C507.177 229.028 506.985 229.904 506.985 230.912V242H503.241V229.58C503.241 228.86 503.157 228.272 502.989 227.816C502.821 227.336 502.593 226.964 502.305 226.7C502.017 226.412 501.669 226.208 501.261 226.088C500.853 225.968 500.421 225.908 499.965 225.908C499.173 225.908 498.453 226.124 497.805 226.556C497.157 226.964 496.641 227.54 496.257 228.284C495.873 229.028 495.681 229.904 495.681 230.912V242H491.937ZM522.91 219.788V215.972H526.654V219.788H522.91ZM522.91 242V223.064H526.654V242H522.91ZM536.204 242.432C535.124 242.432 534.272 242.228 533.648 241.82C533.048 241.388 532.616 240.848 532.352 240.2C532.112 239.528 531.992 238.82 531.992 238.076V226.16H529.616V223.064H532.064L532.748 217.772H535.736V223.064H539.156V226.16H535.736V237.644C535.736 238.196 535.856 238.616 536.096 238.904C536.336 239.192 536.732 239.336 537.284 239.336H539.156V241.856C538.916 241.952 538.616 242.036 538.256 242.108C537.92 242.204 537.572 242.276 537.212 242.324C536.852 242.396 536.516 242.432 536.204 242.432ZM550.305 242.432C548.361 242.432 546.729 242.084 545.409 241.388C544.113 240.668 543.129 239.576 542.457 238.112C541.785 236.648 541.449 234.788 541.449 232.532C541.449 230.252 541.785 228.392 542.457 226.952C543.129 225.488 544.125 224.408 545.445 223.712C546.765 222.992 548.409 222.632 550.377 222.632C552.177 222.632 553.677 222.98 554.877 223.676C556.101 224.348 557.025 225.38 557.649 226.772C558.273 228.164 558.585 229.916 558.585 232.028V233.468H545.301C545.349 234.812 545.553 235.94 545.913 236.852C546.273 237.74 546.813 238.4 547.533 238.832C548.277 239.24 549.213 239.444 550.341 239.444C551.037 239.444 551.661 239.36 552.213 239.192C552.765 239 553.233 238.736 553.617 238.4C554.001 238.04 554.301 237.62 554.517 237.14C554.733 236.636 554.841 236.072 554.841 235.448H558.513C558.513 236.576 558.321 237.572 557.937 238.436C557.553 239.3 556.989 240.032 556.245 240.632C555.525 241.208 554.661 241.652 553.653 241.964C552.645 242.276 551.529 242.432 550.305 242.432ZM545.373 230.732H554.661C554.661 229.796 554.553 229.016 554.337 228.392C554.145 227.744 553.857 227.216 553.473 226.808C553.089 226.4 552.633 226.112 552.105 225.944C551.577 225.752 550.977 225.656 550.305 225.656C549.297 225.656 548.433 225.836 547.713 226.196C547.017 226.556 546.477 227.12 546.093 227.888C545.709 228.632 545.469 229.58 545.373 230.732ZM568.907 242.432C567.371 242.432 566.039 242.084 564.911 241.388C563.783 240.692 562.907 239.612 562.283 238.148C561.683 236.684 561.383 234.788 561.383 232.46C561.383 230.18 561.695 228.32 562.319 226.88C562.943 225.44 563.807 224.372 564.911 223.676C566.015 222.98 567.287 222.632 568.727 222.632C569.567 222.632 570.347 222.728 571.067 222.92C571.787 223.112 572.423 223.412 572.975 223.82C573.551 224.228 574.031 224.744 574.415 225.368H574.667V215.972H578.411V242H575.351L574.991 239.408H574.739C574.115 240.416 573.287 241.172 572.255 241.676C571.247 242.18 570.131 242.432 568.907 242.432ZM569.951 239.192C571.055 239.192 571.943 238.952 572.615 238.472C573.311 237.968 573.827 237.248 574.163 236.312C574.499 235.352 574.667 234.188 574.667 232.82V232.316C574.667 231.164 574.559 230.18 574.343 229.364C574.127 228.548 573.815 227.888 573.407 227.384C572.999 226.856 572.507 226.472 571.931 226.232C571.355 225.992 570.707 225.872 569.987 225.872C568.883 225.872 567.983 226.1 567.287 226.556C566.591 226.988 566.075 227.672 565.739 228.608C565.427 229.544 565.271 230.756 565.271 232.244V232.892C565.271 234.38 565.439 235.592 565.775 236.528C566.111 237.44 566.615 238.112 567.287 238.544C567.983 238.976 568.871 239.192 569.951 239.192ZM598.469 242.432C596.525 242.432 594.893 242.084 593.573 241.388C592.277 240.668 591.293 239.576 590.621 238.112C589.949 236.648 589.613 234.788 589.613 232.532C589.613 230.252 589.949 228.392 590.621 226.952C591.293 225.488 592.289 224.408 593.609 223.712C594.929 222.992 596.573 222.632 598.541 222.632C600.341 222.632 601.841 222.98 603.041 223.676C604.265 224.348 605.189 225.38 605.813 226.772C606.437 228.164 606.749 229.916 606.749 232.028V233.468H593.465C593.513 234.812 593.717 235.94 594.077 236.852C594.437 237.74 594.977 238.4 595.697 238.832C596.441 239.24 597.377 239.444 598.505 239.444C599.201 239.444 599.825 239.36 600.377 239.192C600.929 239 601.397 238.736 601.781 238.4C602.165 238.04 602.465 237.62 602.681 237.14C602.897 236.636 603.005 236.072 603.005 235.448H606.677C606.677 236.576 606.485 237.572 606.101 238.436C605.717 239.3 605.153 240.032 604.409 240.632C603.689 241.208 602.825 241.652 601.817 241.964C600.809 242.276 599.693 242.432 598.469 242.432ZM593.537 230.732H602.825C602.825 229.796 602.717 229.016 602.501 228.392C602.309 227.744 602.021 227.216 601.637 226.808C601.253 226.4 600.797 226.112 600.269 225.944C599.741 225.752 599.141 225.656 598.469 225.656C597.461 225.656 596.597 225.836 595.877 226.196C595.181 226.556 594.641 227.12 594.257 227.888C593.873 228.632 593.633 229.58 593.537 230.732ZM610.555 242V223.064H613.651L613.975 225.764H614.227C614.659 225.068 615.151 224.492 615.703 224.036C616.279 223.58 616.915 223.232 617.611 222.992C618.331 222.752 619.099 222.632 619.915 222.632C621.091 222.632 622.111 222.872 622.975 223.352C623.863 223.832 624.535 224.636 624.991 225.764H625.243C625.675 225.092 626.179 224.528 626.755 224.072C627.331 223.592 627.979 223.232 628.699 222.992C629.443 222.752 630.235 222.632 631.075 222.632C632.203 222.632 633.199 222.836 634.063 223.244C634.927 223.628 635.611 224.288 636.115 225.224C636.619 226.136 636.871 227.36 636.871 228.896V242H633.127V229.58C633.127 228.86 633.043 228.272 632.875 227.816C632.707 227.336 632.479 226.964 632.191 226.7C631.903 226.412 631.555 226.208 631.147 226.088C630.739 225.968 630.295 225.908 629.815 225.908C629.023 225.908 628.315 226.124 627.691 226.556C627.067 226.964 626.563 227.54 626.179 228.284C625.795 229.028 625.603 229.904 625.603 230.912V242H621.859V229.58C621.859 228.86 621.775 228.272 621.607 227.816C621.439 227.336 621.211 226.964 620.923 226.7C620.635 226.412 620.287 226.208 619.879 226.088C619.471 225.968 619.039 225.908 618.583 225.908C617.791 225.908 617.071 226.124 616.423 226.556C615.775 226.964 615.259 227.54 614.875 228.284C614.491 229.028 614.299 229.904 614.299 230.912V242H610.555ZM646.315 242.432C645.715 242.432 645.067 242.36 644.371 242.216C643.675 242.072 643.015 241.808 642.391 241.424C641.791 241.04 641.299 240.512 640.915 239.84C640.531 239.144 640.339 238.244 640.339 237.14C640.339 235.844 640.639 234.776 641.239 233.936C641.839 233.096 642.679 232.436 643.759 231.956C644.839 231.476 646.123 231.14 647.611 230.948C649.123 230.756 650.767 230.66 652.543 230.66V228.788C652.543 228.164 652.435 227.612 652.219 227.132C652.027 226.652 651.655 226.28 651.103 226.016C650.575 225.752 649.807 225.62 648.799 225.62C647.791 225.62 646.999 225.752 646.423 226.016C645.871 226.256 645.475 226.568 645.235 226.952C645.019 227.312 644.911 227.708 644.911 228.14V228.68H641.311C641.287 228.56 641.275 228.44 641.275 228.32C641.275 228.2 641.275 228.056 641.275 227.888C641.275 226.76 641.587 225.812 642.211 225.044C642.859 224.252 643.759 223.652 644.911 223.244C646.063 222.836 647.395 222.632 648.907 222.632C650.539 222.632 651.895 222.872 652.975 223.352C654.079 223.808 654.907 224.468 655.459 225.332C656.011 226.196 656.287 227.24 656.287 228.464V238.076C656.287 238.532 656.395 238.856 656.611 239.048C656.851 239.24 657.127 239.336 657.439 239.336H658.735V241.856C658.447 241.976 658.087 242.096 657.655 242.216C657.223 242.336 656.719 242.396 656.143 242.396C655.495 242.396 654.943 242.276 654.487 242.036C654.055 241.82 653.695 241.508 653.407 241.1C653.143 240.668 652.963 240.188 652.867 239.66H652.651C652.219 240.212 651.691 240.704 651.067 241.136C650.467 241.544 649.771 241.856 648.979 242.072C648.187 242.312 647.299 242.432 646.315 242.432ZM647.359 239.336C648.103 239.336 648.787 239.228 649.411 239.012C650.059 238.772 650.611 238.448 651.067 238.04C651.523 237.608 651.883 237.104 652.147 236.528C652.411 235.928 652.543 235.28 652.543 234.584V233.324C650.887 233.324 649.435 233.42 648.187 233.612C646.939 233.804 645.967 234.164 645.271 234.692C644.575 235.196 644.227 235.904 644.227 236.816C644.227 237.368 644.347 237.836 644.587 238.22C644.827 238.58 645.187 238.856 645.667 239.048C646.147 239.24 646.711 239.336 647.359 239.336ZM661.32 219.788V215.972H665.064V219.788H661.32ZM661.32 242V223.064H665.064V242H661.32ZM669.898 242V215.972H673.642V242H669.898ZM690.647 242.432C690.047 242.432 689.399 242.36 688.703 242.216C688.007 242.072 687.347 241.808 686.723 241.424C686.123 241.04 685.631 240.512 685.247 239.84C684.863 239.144 684.671 238.244 684.671 237.14C684.671 235.844 684.971 234.776 685.571 233.936C686.171 233.096 687.011 232.436 688.091 231.956C689.171 231.476 690.455 231.14 691.943 230.948C693.455 230.756 695.099 230.66 696.875 230.66V228.788C696.875 228.164 696.767 227.612 696.551 227.132C696.359 226.652 695.987 226.28 695.435 226.016C694.907 225.752 694.139 225.62 693.131 225.62C692.123 225.62 691.331 225.752 690.755 226.016C690.203 226.256 689.807 226.568 689.567 226.952C689.351 227.312 689.243 227.708 689.243 228.14V228.68H685.643C685.619 228.56 685.607 228.44 685.607 228.32C685.607 228.2 685.607 228.056 685.607 227.888C685.607 226.76 685.919 225.812 686.543 225.044C687.191 224.252 688.091 223.652 689.243 223.244C690.395 222.836 691.727 222.632 693.239 222.632C694.871 222.632 696.227 222.872 697.307 223.352C698.411 223.808 699.239 224.468 699.791 225.332C700.343 226.196 700.619 227.24 700.619 228.464V238.076C700.619 238.532 700.727 238.856 700.943 239.048C701.183 239.24 701.459 239.336 701.771 239.336H703.067V241.856C702.779 241.976 702.419 242.096 701.987 242.216C701.555 242.336 701.051 242.396 700.475 242.396C699.827 242.396 699.275 242.276 698.819 242.036C698.387 241.82 698.027 241.508 697.739 241.1C697.475 240.668 697.295 240.188 697.199 239.66H696.983C696.551 240.212 696.023 240.704 695.399 241.136C694.799 241.544 694.103 241.856 693.311 242.072C692.519 242.312 691.631 242.432 690.647 242.432ZM691.691 239.336C692.435 239.336 693.119 239.228 693.743 239.012C694.391 238.772 694.943 238.448 695.399 238.04C695.855 237.608 696.215 237.104 696.479 236.528C696.743 235.928 696.875 235.28 696.875 234.584V233.324C695.219 233.324 693.767 233.42 692.519 233.612C691.271 233.804 690.299 234.164 689.603 234.692C688.907 235.196 688.559 235.904 688.559 236.816C688.559 237.368 688.679 237.836 688.919 238.22C689.159 238.58 689.519 238.856 689.999 239.048C690.479 239.24 691.043 239.336 691.691 239.336ZM705.652 242V215.972H709.396V242H705.652ZM714.23 219.788V215.972H717.974V219.788H714.23ZM714.23 242V223.064H717.974V242H714.23ZM727.596 242.432C726.996 242.432 726.348 242.36 725.652 242.216C724.956 242.072 724.296 241.808 723.672 241.424C723.072 241.04 722.58 240.512 722.196 239.84C721.812 239.144 721.62 238.244 721.62 237.14C721.62 235.844 721.92 234.776 722.52 233.936C723.12 233.096 723.96 232.436 725.04 231.956C726.12 231.476 727.404 231.14 728.892 230.948C730.404 230.756 732.048 230.66 733.824 230.66V228.788C733.824 228.164 733.716 227.612 733.5 227.132C733.308 226.652 732.936 226.28 732.384 226.016C731.856 225.752 731.088 225.62 730.08 225.62C729.072 225.62 728.28 225.752 727.704 226.016C727.152 226.256 726.756 226.568 726.516 226.952C726.3 227.312 726.192 227.708 726.192 228.14V228.68H722.592C722.568 228.56 722.556 228.44 722.556 228.32C722.556 228.2 722.556 228.056 722.556 227.888C722.556 226.76 722.868 225.812 723.492 225.044C724.14 224.252 725.04 223.652 726.192 223.244C727.344 222.836 728.676 222.632 730.188 222.632C731.82 222.632 733.176 222.872 734.256 223.352C735.36 223.808 736.188 224.468 736.74 225.332C737.292 226.196 737.568 227.24 737.568 228.464V238.076C737.568 238.532 737.676 238.856 737.892 239.048C738.132 239.24 738.408 239.336 738.72 239.336H740.016V241.856C739.728 241.976 739.368 242.096 738.936 242.216C738.504 242.336 738 242.396 737.424 242.396C736.776 242.396 736.224 242.276 735.768 242.036C735.336 241.82 734.976 241.508 734.688 241.1C734.424 240.668 734.244 240.188 734.148 239.66H733.932C733.5 240.212 732.972 240.704 732.348 241.136C731.748 241.544 731.052 241.856 730.26 242.072C729.468 242.312 728.58 242.432 727.596 242.432ZM728.64 239.336C729.384 239.336 730.068 239.228 730.692 239.012C731.34 238.772 731.892 238.448 732.348 238.04C732.804 237.608 733.164 237.104 733.428 236.528C733.692 235.928 733.824 235.28 733.824 234.584V233.324C732.168 233.324 730.716 233.42 729.468 233.612C728.22 233.804 727.248 234.164 726.552 234.692C725.856 235.196 725.508 235.904 725.508 236.816C725.508 237.368 725.628 237.836 725.868 238.22C726.108 238.58 726.468 238.856 726.948 239.048C727.428 239.24 727.992 239.336 728.64 239.336ZM749.585 242.432C748.265 242.432 747.101 242.288 746.093 242C745.085 241.712 744.245 241.316 743.573 240.812C742.901 240.308 742.385 239.708 742.025 239.012C741.689 238.292 741.521 237.5 741.521 236.636C741.521 236.516 741.521 236.408 741.521 236.312C741.545 236.216 741.557 236.132 741.557 236.06H745.265C745.265 236.132 745.265 236.204 745.265 236.276C745.265 236.324 745.265 236.384 745.265 236.456C745.265 237.2 745.469 237.8 745.877 238.256C746.285 238.688 746.825 239 747.497 239.192C748.193 239.36 748.949 239.444 749.765 239.444C750.485 239.444 751.145 239.36 751.745 239.192C752.369 239 752.873 238.724 753.257 238.364C753.665 238.004 753.869 237.548 753.869 236.996C753.869 236.276 753.617 235.724 753.113 235.34C752.609 234.956 751.949 234.656 751.133 234.44C750.317 234.2 749.465 233.948 748.577 233.684C747.785 233.468 746.993 233.24 746.201 233C745.433 232.736 744.737 232.4 744.113 231.992C743.489 231.584 742.985 231.068 742.601 230.444C742.217 229.82 742.025 229.04 742.025 228.104C742.025 227.216 742.217 226.436 742.601 225.764C742.985 225.092 743.513 224.528 744.185 224.072C744.881 223.616 745.697 223.268 746.633 223.028C747.593 222.788 748.637 222.668 749.765 222.668C750.941 222.668 751.985 222.8 752.897 223.064C753.809 223.304 754.577 223.652 755.201 224.108C755.849 224.564 756.341 225.116 756.677 225.764C757.013 226.388 757.181 227.06 757.181 227.78C757.181 227.924 757.169 228.08 757.145 228.248C757.145 228.392 757.145 228.488 757.145 228.536H753.473V228.212C753.473 227.732 753.341 227.3 753.077 226.916C752.813 226.532 752.393 226.22 751.817 225.98C751.265 225.74 750.521 225.62 749.585 225.62C748.961 225.62 748.409 225.68 747.929 225.8C747.449 225.896 747.053 226.04 746.741 226.232C746.429 226.424 746.189 226.652 746.021 226.916C745.877 227.18 745.805 227.48 745.805 227.816C745.805 228.368 745.997 228.8 746.381 229.112C746.789 229.4 747.317 229.652 747.965 229.868C748.613 230.06 749.309 230.276 750.053 230.516C750.917 230.756 751.793 231.008 752.681 231.272C753.569 231.512 754.385 231.824 755.129 232.208C755.897 232.592 756.509 233.12 756.965 233.792C757.445 234.464 757.685 235.364 757.685 236.492C757.685 237.524 757.481 238.424 757.073 239.192C756.665 239.96 756.089 240.584 755.345 241.064C754.625 241.52 753.773 241.856 752.789 242.072C751.805 242.312 750.737 242.432 749.585 242.432ZM769.328 242.432C767.384 242.432 765.752 242.084 764.432 241.388C763.136 240.668 762.152 239.576 761.48 238.112C760.808 236.648 760.472 234.788 760.472 232.532C760.472 230.252 760.808 228.392 761.48 226.952C762.152 225.488 763.148 224.408 764.468 223.712C765.788 222.992 767.432 222.632 769.4 222.632C771.2 222.632 772.7 222.98 773.9 223.676C775.124 224.348 776.048 225.38 776.672 226.772C777.296 228.164 777.608 229.916 777.608 232.028V233.468H764.324C764.372 234.812 764.576 235.94 764.936 236.852C765.296 237.74 765.836 238.4 766.556 238.832C767.3 239.24 768.236 239.444 769.364 239.444C770.06 239.444 770.684 239.36 771.236 239.192C771.788 239 772.256 238.736 772.64 238.4C773.024 238.04 773.324 237.62 773.54 237.14C773.756 236.636 773.864 236.072 773.864 235.448H777.536C777.536 236.576 777.344 237.572 776.96 238.436C776.576 239.3 776.012 240.032 775.268 240.632C774.548 241.208 773.684 241.652 772.676 241.964C771.668 242.276 770.552 242.432 769.328 242.432ZM764.396 230.732H773.684C773.684 229.796 773.576 229.016 773.36 228.392C773.168 227.744 772.88 227.216 772.496 226.808C772.112 226.4 771.656 226.112 771.128 225.944C770.6 225.752 770 225.656 769.328 225.656C768.32 225.656 767.456 225.836 766.736 226.196C766.04 226.556 765.5 227.12 765.116 227.888C764.732 228.632 764.492 229.58 764.396 230.732ZM788.398 242.432C787.078 242.432 785.914 242.288 784.906 242C783.898 241.712 783.058 241.316 782.386 240.812C781.714 240.308 781.198 239.708 780.838 239.012C780.502 238.292 780.334 237.5 780.334 236.636C780.334 236.516 780.334 236.408 780.334 236.312C780.358 236.216 780.37 236.132 780.37 236.06H784.078C784.078 236.132 784.078 236.204 784.078 236.276C784.078 236.324 784.078 236.384 784.078 236.456C784.078 237.2 784.282 237.8 784.69 238.256C785.098 238.688 785.638 239 786.31 239.192C787.006 239.36 787.762 239.444 788.578 239.444C789.298 239.444 789.958 239.36 790.558 239.192C791.182 239 791.686 238.724 792.07 238.364C792.478 238.004 792.682 237.548 792.682 236.996C792.682 236.276 792.43 235.724 791.926 235.34C791.422 234.956 790.762 234.656 789.946 234.44C789.13 234.2 788.278 233.948 787.39 233.684C786.598 233.468 785.806 233.24 785.014 233C784.246 232.736 783.55 232.4 782.926 231.992C782.302 231.584 781.798 231.068 781.414 230.444C781.03 229.82 780.838 229.04 780.838 228.104C780.838 227.216 781.03 226.436 781.414 225.764C781.798 225.092 782.326 224.528 782.998 224.072C783.694 223.616 784.51 223.268 785.446 223.028C786.406 222.788 787.45 222.668 788.578 222.668C789.754 222.668 790.798 222.8 791.71 223.064C792.622 223.304 793.39 223.652 794.014 224.108C794.662 224.564 795.154 225.116 795.49 225.764C795.826 226.388 795.994 227.06 795.994 227.78C795.994 227.924 795.982 228.08 795.958 228.248C795.958 228.392 795.958 228.488 795.958 228.536H792.286V228.212C792.286 227.732 792.154 227.3 791.89 226.916C791.626 226.532 791.206 226.22 790.63 225.98C790.078 225.74 789.334 225.62 788.398 225.62C787.774 225.62 787.222 225.68 786.742 225.8C786.262 225.896 785.866 226.04 785.554 226.232C785.242 226.424 785.002 226.652 784.834 226.916C784.69 227.18 784.618 227.48 784.618 227.816C784.618 228.368 784.81 228.8 785.194 229.112C785.602 229.4 786.13 229.652 786.778 229.868C787.426 230.06 788.122 230.276 788.866 230.516C789.73 230.756 790.606 231.008 791.494 231.272C792.382 231.512 793.198 231.824 793.942 232.208C794.71 232.592 795.322 233.12 795.778 233.792C796.258 234.464 796.498 235.364 796.498 236.492C796.498 237.524 796.294 238.424 795.886 239.192C795.478 239.96 794.902 240.584 794.158 241.064C793.438 241.52 792.586 241.856 791.602 242.072C790.618 242.312 789.55 242.432 788.398 242.432Z" fill="black"/>
</g>
<defs>
<clipPath id="clip0_12_94">
<rect width="1080" height="400" fill="white"/>
</clipPath>
</defs>
</svg>
